ISO-10303-21;
HEADER;
FILE_DESCRIPTION (( 'STEP AP203' ),
    '1' );
FILE_NAME ('Bauteil_B.STEP',
    '2024-08-19T12:21:24',
    ( '' ),
    ( '' ),
    'SwSTEP 2.0',
    'SolidWorks 2023',
    '' );
FILE_SCHEMA (( 'CONFIG_CONTROL_DESIGN' ));
ENDSEC;

DATA;
#1 = ADVANCED_FACE ( 'NONE', ( #36 ), #39, .F. ) ;
#2 = DESIGN_CONTEXT ( 'detailed design', #317, 'design' ) ;
#3 = APPROVAL_DATE_TIME ( #264, #174 ) ;
#4 = VECTOR ( 'NONE', #116, 1000.000000000000000 ) ;
#5 = EDGE_CURVE ( 'NONE', #334, #366, #183, .T. ) ;
#6 = DIRECTION ( 'NONE',  ( -1.000000000000000000, 0.000000000000000000, 0.000000000000000000 ) ) ;
#7 = LINE ( 'NONE', #235, #244 ) ;
#8 = ORIENTED_EDGE ( 'NONE', *, *, #17, .T. ) ;
#9 = DIRECTION ( 'NONE',  ( 0.000000000000000000, 1.000000000000000000, 0.000000000000000000 ) ) ;
#10 = CARTESIAN_POINT ( 'NONE',  ( -12.50000000000000000, -20.00000000000001066, 40.00000000000000000 ) ) ;
#11 = ORIENTED_EDGE ( 'NONE', *, *, #479, .F. ) ;
#12 = PRODUCT_DEFINITION_FORMATION_WITH_SPECIFIED_SOURCE ( 'ANY', '', #425, .NOT_KNOWN. ) ;
#13 = ORIENTED_EDGE ( 'NONE', *, *, #17, .F. ) ;
#14 = VERTEX_POINT ( 'NONE', #417 ) ;
#15 = CARTESIAN_POINT ( 'NONE',  ( -35.00000000000000711, -49.99999999999999289, 40.00000000000000000 ) ) ;
#16 = FACE_OUTER_BOUND ( 'NONE', #392, .T. ) ;
#17 = EDGE_CURVE ( 'NONE', #473, #203, #344, .T. ) ;
#18 = ORIENTED_EDGE ( 'NONE', *, *, #181, .T. ) ;
#19 = PLANE ( 'NONE',  #462 ) ;
#20 = LINE ( 'NONE', #58, #307 ) ;
#21 = ORIENTED_EDGE ( 'NONE', *, *, #282, .F. ) ;
#22 = CARTESIAN_POINT ( 'NONE',  ( -60.00000000000001421, 0.000000000000000000, 0.000000000000000000 ) ) ;
#23 = CARTESIAN_POINT ( 'NONE',  ( 0.000000000000000000, 0.000000000000000000, -40.00000000000000000 ) ) ;
#24 = AXIS2_PLACEMENT_3D ( 'NONE', #247, #32, #287 ) ;
#25 = ORIENTED_EDGE ( 'NONE', *, *, #304, .F. ) ;
#26 = CARTESIAN_POINT ( 'NONE',  ( -60.00000000000001421, -50.00000000000000711, -40.00000000000000000 ) ) ;
#27 = DIRECTION ( 'NONE',  ( 1.000000000000000000, 0.000000000000000000, 0.000000000000000000 ) ) ;
#28 = CARTESIAN_POINT ( 'NONE',  ( -35.00000000000000711, -49.99999999999999289, 40.00000000000000000 ) ) ;
#29 = ORIENTED_EDGE ( 'NONE', *, *, #484, .F. ) ;
#30 = AXIS2_PLACEMENT_3D ( 'NONE', #22, #126, #53 ) ;
#31 = CALENDAR_DATE ( 2024, 19, 8 ) ;
#32 = DIRECTION ( 'NONE',  ( 1.000000000000000000, 1.156482317317871725E-16, 0.000000000000000000 ) ) ;
#33 = CARTESIAN_POINT ( 'NONE',  ( -60.00000000000001421, -5.000000000000014211, -40.00000000000000000 ) ) ;
#34 = PERSON_AND_ORGANIZATION ( #94, #492 ) ;
#35 = VECTOR ( 'NONE', #276, 1000.000000000000000 ) ;
#36 = FACE_OUTER_BOUND ( 'NONE', #452, .T. ) ;
#37 = DATE_AND_TIME ( #31, #277 ) ;
#38 = EDGE_CURVE ( 'NONE', #196, #96, #178, .T. ) ;
#39 = PLANE ( 'NONE',  #426 ) ;
#40 = CC_DESIGN_PERSON_AND_ORGANIZATION_ASSIGNMENT ( #260, #109, ( #337 ) ) ;
#41 = CARTESIAN_POINT ( 'NONE',  ( -60.00000000000001421, -5.000000000000014211, -40.00000000000000000 ) ) ;
#42 = CARTESIAN_POINT ( 'NONE',  ( -35.00000000000000711, 50.00000000000000711, -40.00000000000000000 ) ) ;
#43 = ORIENTED_EDGE ( 'NONE', *, *, #348, .T. ) ;
#44 = CARTESIAN_POINT ( 'NONE',  ( -35.00000000000000711, 50.00000000000000711, -40.00000000000000000 ) ) ;
#45 = EDGE_LOOP ( 'NONE', ( #212, #488, #173, #371, #117 ) ) ;
#46 = DIRECTION ( 'NONE',  ( -1.000000000000000000, 0.000000000000000000, -0.000000000000000000 ) ) ;
#47 = ORIENTED_EDGE ( 'NONE', *, *, #207, .F. ) ;
#48 = VERTEX_POINT ( 'NONE', #302 ) ;
#49 = VECTOR ( 'NONE', #325, 1000.000000000000000 ) ;
#50 = ADVANCED_FACE ( 'NONE', ( #314 ), #114, .F. ) ;
#51 = PLANE ( 'NONE',  #487 ) ;
#52 = ORIENTED_EDGE ( 'NONE', *, *, #5, .F. ) ;
#53 = DIRECTION ( 'NONE',  ( 0.000000000000000000, 0.000000000000000000, -1.000000000000000000 ) ) ;
#54 = CARTESIAN_POINT ( 'NONE',  ( -60.00000000000001421, -50.00000000000000711, -40.00000000000000000 ) ) ;
#55 = EDGE_CURVE ( 'NONE', #284, #395, #7, .T. ) ;
#56 = VERTEX_POINT ( 'NONE', #148 ) ;
#57 = LINE ( 'NONE', #67, #225 ) ;
#58 = CARTESIAN_POINT ( 'NONE',  ( -12.49999999999999289, -50.00000000000000711, -4.999999999999997335 ) ) ;
#59 = ORIENTED_EDGE ( 'NONE', *, *, #451, .F. ) ;
#60 = DIRECTION ( 'NONE',  ( -0.000000000000000000, -0.7071067811865462405, 0.7071067811865489050 ) ) ;
#61 = LINE ( 'NONE', #210, #351 ) ;
#62 = ORIENTED_EDGE ( 'NONE', *, *, #169, .T. ) ;
#63 = LINE ( 'NONE', #404, #294 ) ;
#64 = CARTESIAN_POINT ( 'NONE',  ( -35.00000000000000711, 50.00000000000000711, 40.00000000000000000 ) ) ;
#65 = AXIS2_PLACEMENT_3D ( 'NONE', #373, #129, #92 ) ;
#66 = ORIENTED_EDGE ( 'NONE', *, *, #224, .F. ) ;
#67 = CARTESIAN_POINT ( 'NONE',  ( -35.00000000000000711, -49.99999999999999289, 40.00000000000000000 ) ) ;
#68 = CARTESIAN_POINT ( 'NONE',  ( 34.99999999999999289, 50.00000000000000711, 40.00000000000000000 ) ) ;
#69 = VERTEX_POINT ( 'NONE', #10 ) ;
#70 = DATE_AND_TIME ( #422, #444 ) ;
#71 = FACE_OUTER_BOUND ( 'NONE', #362, .T. ) ;
#72 = PERSON_AND_ORGANIZATION_ROLE ( 'creator' ) ;
#73 = EDGE_CURVE ( 'NONE', #196, #122, #232, .T. ) ;
#74 = CC_DESIGN_DATE_AND_TIME_ASSIGNMENT ( #70, #184, ( #337 ) ) ;
#75 = CC_DESIGN_APPROVAL ( #252, ( #433 ) ) ;
#76 = CARTESIAN_POINT ( 'NONE',  ( -12.49999999999999289, -50.00000000000000711, 40.00000000000000000 ) ) ;
#77 = ADVANCED_FACE ( 'NONE', ( #156 ), #319, .F. ) ;
#78 = CARTESIAN_POINT ( 'NONE',  ( 0.000000000000000000, 20.00000000000002487, 40.00000000000000000 ) ) ;
#79 = DIRECTION ( 'NONE',  ( -1.156482317317871478E-16, 1.000000000000000000, 0.000000000000000000 ) ) ;
#80 = CARTESIAN_POINT ( 'NONE',  ( 0.000000000000000000, 0.000000000000000000, 40.00000000000000000 ) ) ;
#81 = ORIENTED_EDGE ( 'NONE', *, *, #398, .T. ) ;
#82 = DIRECTION ( 'NONE',  ( 0.000000000000000000, 0.000000000000000000, -1.000000000000000000 ) ) ;
#83 = EDGE_CURVE ( 'NONE', #48, #288, #229, .T. ) ;
#84 = CARTESIAN_POINT ( 'NONE',  ( 34.99999999999999289, 50.00000000000000711, -40.00000000000000000 ) ) ;
#85 = AXIS2_PLACEMENT_3D ( 'NONE', #251, #258, #411 ) ;
#86 = APPROVAL ( #499, 'UNSPECIFIED' ) ;
#87 = ORIENTED_EDGE ( 'NONE', *, *, #135, .T. ) ;
#88 = ORIENTED_EDGE ( 'NONE', *, *, #55, .F. ) ;
#89 = EDGE_LOOP ( 'NONE', ( #131, #216, #223, #66, #477, #193 ) ) ;
#90 = CARTESIAN_POINT ( 'NONE',  ( -60.00000000000001421, -5.000000000000014211, -40.00000000000000000 ) ) ;
#91 = VECTOR ( 'NONE', #82, 1000.000000000000000 ) ;
#92 = DIRECTION ( 'NONE',  ( 2.312964634635742957E-16, -1.000000000000000000, 0.000000000000000000 ) ) ;
#93 = ORIENTED_EDGE ( 'NONE', *, *, #282, .T. ) ;
#94 = PERSON ( 'UNSPECIFIED', 'UNSPECIFIED', 'UNSPECIFIED', ('UNSPECIFIED'), ('UNSPECIFIED'), ('UNSPECIFIED') ) ;
#95 = DIRECTION ( 'NONE',  ( -0.000000000000000000, -0.000000000000000000, -1.000000000000000000 ) ) ;
#96 = VERTEX_POINT ( 'NONE', #234 ) ;
#97 = DIRECTION ( 'NONE',  ( -0.000000000000000000, -1.000000000000000000, -0.000000000000000000 ) ) ;
#98 = DIRECTION ( 'NONE',  ( 1.000000000000000000, 0.000000000000000000, 0.000000000000000000 ) ) ;
#99 = CARTESIAN_POINT ( 'NONE',  ( -35.00000000000000711, 20.00000000000002487, 40.00000000000000000 ) ) ;
#100 = ORIENTED_EDGE ( 'NONE', *, *, #211, .T. ) ;
#101 = LINE ( 'NONE', #217, #159 ) ;
#102 = DIRECTION ( 'NONE',  ( -0.000000000000000000, -1.000000000000000000, -0.000000000000000000 ) ) ;
#103 = PRODUCT_RELATED_PRODUCT_CATEGORY ( 'detail', '', ( #425 ) ) ;
#104 = ORIENTED_EDGE ( 'NONE', *, *, #437, .F. ) ;
#105 = SECURITY_CLASSIFICATION_LEVEL ( 'unclassified' ) ;
#106 = CARTESIAN_POINT ( 'NONE',  ( 34.99999999999999289, -49.99999999999999289, 40.00000000000000000 ) ) ;
#107 = PERSON_AND_ORGANIZATION ( #94, #492 ) ;
#108 = ADVANCED_FACE ( 'NONE', ( #355 ), #390, .F. ) ;
#109 = PERSON_AND_ORGANIZATION_ROLE ( 'classification_officer' ) ;
#110 = ORIENTED_EDGE ( 'NONE', *, *, #451, .T. ) ;
#111 = AXIS2_PLACEMENT_3D ( 'NONE', #448, #458, #378 ) ;
#112 = DIRECTION ( 'NONE',  ( -0.000000000000000000, -0.000000000000000000, 1.000000000000000000 ) ) ;
#113 = APPROVAL_STATUS ( 'not_yet_approved' ) ;
#114 = PLANE ( 'NONE',  #342 ) ;
#115 = LINE ( 'NONE', #273, #238 ) ;
#116 = DIRECTION ( 'NONE',  ( 0.000000000000000000, 0.000000000000000000, 1.000000000000000000 ) ) ;
#117 = ORIENTED_EDGE ( 'NONE', *, *, #376, .T. ) ;
#118 = LINE ( 'NONE', #440, #396 ) ;
#119 = VERTEX_POINT ( 'NONE', #432 ) ;
#120 = EDGE_CURVE ( 'NONE', #96, #69, #118, .T. ) ;
#121 = CARTESIAN_POINT ( 'NONE',  ( 12.50000000000000355, -20.00000000000000711, -4.999999999999997335 ) ) ;
#122 = VERTEX_POINT ( 'NONE', #192 ) ;
#123 = CC_DESIGN_DATE_AND_TIME_ASSIGNMENT ( #464, #461, ( #433 ) ) ;
#124 = ORIENTED_EDGE ( 'NONE', *, *, #479, .T. ) ;
#125 = VECTOR ( 'NONE', #309, 1000.000000000000000 ) ;
#126 = DIRECTION ( 'NONE',  ( 1.000000000000000000, 0.000000000000000000, 0.000000000000000000 ) ) ;
#127 = ORIENTED_EDGE ( 'NONE', *, *, #359, .F. ) ;
#128 = CARTESIAN_POINT ( 'NONE',  ( -35.00000000000000711, 50.00000000000000711, 40.00000000000000000 ) ) ;
#129 = DIRECTION ( 'NONE',  ( -1.000000000000000000, -2.312964634635742957E-16, 0.000000000000000000 ) ) ;
#130 = APPLICATION_CONTEXT ( 'configuration controlled 3d designs of mechanical parts and assemblies' ) ;
#131 = ORIENTED_EDGE ( 'NONE', *, *, #435, .F. ) ;
#132 = CARTESIAN_POINT ( 'NONE',  ( -35.00000000000000711, -49.99999999999999289, 40.00000000000000000 ) ) ;
#133 = VECTOR ( 'NONE', #150, 1000.000000000000000 ) ;
#134 = ORIENTED_EDGE ( 'NONE', *, *, #120, .T. ) ;
#135 = EDGE_CURVE ( 'NONE', #122, #69, #271, .T. ) ;
#136 = LOCAL_TIME ( 14, 21, 24.00000000000000000, #263 ) ;
#137 = VERTEX_POINT ( 'NONE', #84 ) ;
#138 = DIRECTION ( 'NONE',  ( 0.000000000000000000, 1.000000000000000000, 0.000000000000000000 ) ) ;
#139 = FACE_OUTER_BOUND ( 'NONE', #89, .T. ) ;
#140 = EDGE_LOOP ( 'NONE', ( #87, #200, #409, #375 ) ) ;
#141 = APPROVAL_ROLE ( '' ) ;
#142 = DIRECTION ( 'NONE',  ( 0.000000000000000000, 0.000000000000000000, 1.000000000000000000 ) ) ;
#143 = DIRECTION ( 'NONE',  ( -1.000000000000000000, -1.387778780781445429E-16, -0.000000000000000000 ) ) ;
#144 = APPROVAL_DATE_TIME ( #222, #86 ) ;
#145 = DIRECTION ( 'NONE',  ( -1.000000000000000000, 0.000000000000000000, 0.000000000000000000 ) ) ;
#146 = VECTOR ( 'NONE', #468, 1000.000000000000000 ) ;
#147 = PERSON_AND_ORGANIZATION_ROLE ( 'design_owner' ) ;
#148 = CARTESIAN_POINT ( 'NONE',  ( 12.50000000000000711, -50.00000000000000711, -4.999999999999997335 ) ) ;
#149 = CARTESIAN_POINT ( 'NONE',  ( 12.50000000000000711, -50.00000000000000711, 40.00000000000000000 ) ) ;
#150 = DIRECTION ( 'NONE',  ( 0.000000000000000000, 1.000000000000000000, 0.000000000000000000 ) ) ;
#151 = LINE ( 'NONE', #42, #125 ) ;
#152 = AXIS2_PLACEMENT_3D ( 'NONE', #78, #278, #145 ) ;
#153 = EDGE_CURVE ( 'NONE', #441, #122, #397, .T. ) ;
#154 = ORIENTED_EDGE ( 'NONE', *, *, #83, .F. ) ;
#155 = VECTOR ( 'NONE', #60, 1000.000000000000000 ) ;
#156 = FACE_OUTER_BOUND ( 'NONE', #165, .T. ) ;
#157 = ORIENTED_EDGE ( 'NONE', *, *, #211, .F. ) ;
#158 = CC_DESIGN_PERSON_AND_ORGANIZATION_ASSIGNMENT ( #220, #347, ( #12 ) ) ;
#159 = VECTOR ( 'NONE', #450, 1000.000000000000000 ) ;
#160 = ORIENTED_EDGE ( 'NONE', *, *, #248, .T. ) ;
#161 = CARTESIAN_POINT ( 'NONE',  ( 34.99999999999999289, -49.99999999999999289, 40.00000000000000000 ) ) ;
#162 = ORIENTED_EDGE ( 'NONE', *, *, #380, .F. ) ;
#163 = LINE ( 'NONE', #26, #240 ) ;
#164 = PLANE ( 'NONE',  #111 ) ;
#165 = EDGE_LOOP ( 'NONE', ( #8, #29, #480, #364, #279, #259, #43, #110 ) ) ;
#166 = LINE ( 'NONE', #296, #243 ) ;
#167 = DIRECTION ( 'NONE',  ( 0.000000000000000000, 0.000000000000000000, -1.000000000000000000 ) ) ;
#168 = ORIENTED_EDGE ( 'NONE', *, *, #181, .F. ) ;
#169 = EDGE_CURVE ( 'NONE', #137, #353, #151, .T. ) ;
#170 = PLANE ( 'NONE',  #218 ) ;
#171 = VECTOR ( 'NONE', #311, 1000.000000000000000 ) ;
#172 = PLANE ( 'NONE',  #65 ) ;
#173 = ORIENTED_EDGE ( 'NONE', *, *, #318, .F. ) ;
#174 = APPROVAL ( #268, 'UNSPECIFIED' ) ;
#175 = CARTESIAN_POINT ( 'NONE',  ( -35.00000000000000711, -49.99999999999999289, -40.00000000000000000 ) ) ;
#176 = CARTESIAN_POINT ( 'NONE',  ( -35.00000000000000711, -5.000000000000014211, -40.00000000000000000 ) ) ;
#177 = LOCAL_TIME ( 14, 21, 24.00000000000000000, #350 ) ;
#178 = LINE ( 'NONE', #338, #472 ) ;
#179 = ORIENTED_EDGE ( 'NONE', *, *, #393, .F. ) ;
#180 = LINE ( 'NONE', #293, #330 ) ;
#181 = EDGE_CURVE ( 'NONE', #56, #441, #194, .T. ) ;
#182 = APPROVAL_ROLE ( '' ) ;
#183 = LINE ( 'NONE', #99, #434 ) ;
#184 = DATE_TIME_ROLE ( 'classification_date' ) ;
#185 = APPROVAL_DATE_TIME ( #37, #252 ) ;
#186 = DIRECTION ( 'NONE',  ( -0.000000000000000000, -0.000000000000000000, -1.000000000000000000 ) ) ;
#187 = EDGE_CURVE ( 'NONE', #189, #284, #470, .T. ) ;
#188 = LINE ( 'NONE', #475, #428 ) ;
#189 = VERTEX_POINT ( 'NONE', #54 ) ;
#190 = CARTESIAN_POINT ( 'NONE',  ( 34.99999999999999289, 50.00000000000000711, 9.999999999999896971 ) ) ;
#191 = EDGE_CURVE ( 'NONE', #395, #48, #188, .T. ) ;
#192 = CARTESIAN_POINT ( 'NONE',  ( 12.50000000000000355, -20.00000000000000711, 40.00000000000000000 ) ) ;
#193 = ORIENTED_EDGE ( 'NONE', *, *, #376, .F. ) ;
#194 = LINE ( 'NONE', #269, #146 ) ;
#195 = VECTOR ( 'NONE', #436, 1000.000000000000000 ) ;
#196 = VERTEX_POINT ( 'NONE', #431 ) ;
#197 = ORIENTED_EDGE ( 'NONE', *, *, #83, .T. ) ;
#198 = CC_DESIGN_APPROVAL ( #86, ( #337 ) ) ;
#199 = VECTOR ( 'NONE', #498, 1000.000000000000000 ) ;
#200 = ORIENTED_EDGE ( 'NONE', *, *, #120, .F. ) ;
#201 = LINE ( 'NONE', #335, #379 ) ;
#202 = DIRECTION ( 'NONE',  ( 1.000000000000000000, -0.000000000000000000, -0.000000000000000000 ) ) ;
#203 = VERTEX_POINT ( 'NONE', #76 ) ;
#204 = CARTESIAN_POINT ( 'NONE',  ( -60.00000000000001421, -5.000000000000014211, -10.00000000000000178 ) ) ;
#205 = DIRECTION ( 'NONE',  ( 1.000000000000000000, 0.000000000000000000, 0.000000000000000000 ) ) ;
#206 = CC_DESIGN_APPROVAL ( #174, ( #12 ) ) ;
#207 = EDGE_CURVE ( 'NONE', #395, #119, #385, .T. ) ;
#208 = EDGE_LOOP ( 'NONE', ( #21, #160, #13, #124, #162, #256, #456, #327, #25, #168 ) ) ;
#209 = FACE_OUTER_BOUND ( 'NONE', #320, .T. ) ;
#210 = CARTESIAN_POINT ( 'NONE',  ( -35.00000000000000711, -49.99999999999999289, 40.00000000000000000 ) ) ;
#211 = EDGE_CURVE ( 'NONE', #96, #439, #368, .T. ) ;
#212 = ORIENTED_EDGE ( 'NONE', *, *, #221, .F. ) ;
#213 = FACE_OUTER_BOUND ( 'NONE', #253, .T. ) ;
#214 = VECTOR ( 'NONE', #102, 1000.000000000000000 ) ;
#215 = DIRECTION ( 'NONE',  ( 2.312964634635742957E-16, -1.000000000000000000, -0.000000000000000000 ) ) ;
#216 = ORIENTED_EDGE ( 'NONE', *, *, #398, .F. ) ;
#217 = CARTESIAN_POINT ( 'NONE',  ( -12.49999999999999289, -50.00000000000000711, 40.00000000000000000 ) ) ;
#218 = AXIS2_PLACEMENT_3D ( 'NONE', #132, #286, #410 ) ;
#219 = VERTEX_POINT ( 'NONE', #106 ) ;
#220 = PERSON_AND_ORGANIZATION ( #94, #492 ) ;
#221 = EDGE_CURVE ( 'NONE', #356, #137, #494, .T. ) ;
#222 = DATE_AND_TIME ( #427, #430 ) ;
#223 = ORIENTED_EDGE ( 'NONE', *, *, #437, .T. ) ;
#224 = EDGE_CURVE ( 'NONE', #353, #288, #341, .T. ) ;
#225 = VECTOR ( 'NONE', #445, 1000.000000000000000 ) ;
#226 = CARTESIAN_POINT ( 'NONE',  ( 0.000000000000000000, 0.000000000000000000, 0.000000000000000000 ) ) ;
#227 = ADVANCED_FACE ( 'NONE', ( #16 ), #164, .F. ) ;
#228 = PERSON_AND_ORGANIZATION ( #94, #492 ) ;
#229 = LINE ( 'NONE', #352, #91 ) ;
#230 = CARTESIAN_POINT ( 'NONE',  ( 0.000000000000000000, 20.00000000000002487, 40.00000000000000000 ) ) ;
#231 = ADVANCED_FACE ( 'NONE', ( #326 ), #261, .F. ) ;
#232 = LINE ( 'NONE', #121, #35 ) ;
#233 = EDGE_LOOP ( 'NONE', ( #127, #237, #52, #291 ) ) ;
#234 = CARTESIAN_POINT ( 'NONE',  ( -12.50000000000000000, -20.00000000000001066, -4.999999999999997335 ) ) ;
#235 = CARTESIAN_POINT ( 'NONE',  ( -60.00000000000001421, -50.00000000000000711, -10.00000000000000178 ) ) ;
#236 = AXIS2_PLACEMENT_3D ( 'NONE', #23, #167, #423 ) ;
#237 = ORIENTED_EDGE ( 'NONE', *, *, #308, .F. ) ;
#238 = VECTOR ( 'NONE', #79, 1000.000000000000000 ) ;
#239 = ORIENTED_EDGE ( 'NONE', *, *, #272, .T. ) ;
#240 = VECTOR ( 'NONE', #97, 1000.000000000000000 ) ;
#241 = ORIENTED_EDGE ( 'NONE', *, *, #345, .F. ) ;
#242 =( NAMED_UNIT ( * ) PLANE_ANGLE_UNIT ( ) SI_UNIT ( $, .RADIAN. ) );
#243 = VECTOR ( 'NONE', #257, 1000.000000000000000 ) ;
#244 = VECTOR ( 'NONE', #9, 1000.000000000000000 ) ;
#245 = ORIENTED_EDGE ( 'NONE', *, *, #221, .T. ) ;
#246 = LINE ( 'NONE', #457, #453 ) ;
#247 = CARTESIAN_POINT ( 'NONE',  ( 12.50000000000000711, -50.00000000000000711, -4.999999999999997335 ) ) ;
#248 = EDGE_CURVE ( 'NONE', #439, #203, #180, .T. ) ;
#249 = VECTOR ( 'NONE', #388, 1000.000000000000000 ) ;
#250 = VERTEX_POINT ( 'NONE', #482 ) ;
#251 = CARTESIAN_POINT ( 'NONE',  ( -60.00000000000001421, -50.00000000000000711, -10.00000000000000178 ) ) ;
#252 = APPROVAL ( #113, 'UNSPECIFIED' ) ;
#253 = EDGE_LOOP ( 'NONE', ( #81, #449, #413, #402 ) ) ;
#254 = LINE ( 'NONE', #161, #49 ) ;
#255 = LINE ( 'NONE', #297, #133 ) ;
#256 = ORIENTED_EDGE ( 'NONE', *, *, #187, .F. ) ;
#257 = DIRECTION ( 'NONE',  ( 1.000000000000000000, -0.000000000000000000, -0.000000000000000000 ) ) ;
#258 = DIRECTION ( 'NONE',  ( 0.000000000000000000, 0.000000000000000000, -1.000000000000000000 ) ) ;
#259 = ORIENTED_EDGE ( 'NONE', *, *, #318, .T. ) ;
#260 = PERSON_AND_ORGANIZATION ( #94, #492 ) ;
#261 = PLANE ( 'NONE',  #24 ) ;
#262 = PRODUCT_DEFINITION_SHAPE ( 'NONE', 'NONE',  #433 ) ;
#263 = COORDINATED_UNIVERSAL_TIME_OFFSET ( 1, 0, .AHEAD. ) ;
#264 = DATE_AND_TIME ( #424, #136 ) ;
#265 = VECTOR ( 'NONE', #215, 1000.000000000000000 ) ;
#266 = ADVANCED_FACE ( 'NONE', ( #139 ), #290, .T. ) ;
#267 = DIRECTION ( 'NONE',  ( 0.000000000000000000, -0.000000000000000000, -1.000000000000000000 ) ) ;
#268 = APPROVAL_STATUS ( 'not_yet_approved' ) ;
#269 = CARTESIAN_POINT ( 'NONE',  ( 12.50000000000000711, -50.00000000000000711, -4.999999999999997335 ) ) ;
#270 = CC_DESIGN_PERSON_AND_ORGANIZATION_ASSIGNMENT ( #34, #147, ( #425 ) ) ;
#271 = LINE ( 'NONE', #274, #171 ) ;
#272 = EDGE_CURVE ( 'NONE', #366, #353, #497, .T. ) ;
#273 = CARTESIAN_POINT ( 'NONE',  ( 12.50000000000000711, -50.00000000000000711, -4.999999999999997335 ) ) ;
#274 = CARTESIAN_POINT ( 'NONE',  ( -12.50000000000000000, -20.00000000000001066, 40.00000000000000000 ) ) ;
#275 = CARTESIAN_POINT ( 'NONE',  ( 34.99999999999999289, 20.00000000000002487, 40.00000000000000000 ) ) ;
#276 = DIRECTION ( 'NONE',  ( -0.000000000000000000, -0.000000000000000000, 1.000000000000000000 ) ) ;
#277 = LOCAL_TIME ( 14, 21, 24.00000000000000000, #496 ) ;
#278 = DIRECTION ( 'NONE',  ( -0.000000000000000000, -0.7071067811865489050, -0.7071067811865462405 ) ) ;
#279 = ORIENTED_EDGE ( 'NONE', *, *, #304, .T. ) ;
#280 = VECTOR ( 'NONE', #95, 1000.000000000000000 ) ;
#281 = ADVANCED_FACE ( 'NONE', ( #71 ), #172, .F. ) ;
#282 = EDGE_CURVE ( 'NONE', #439, #56, #20, .T. ) ;
#283 = DIRECTION ( 'NONE',  ( -0.000000000000000000, -1.000000000000000000, -0.000000000000000000 ) ) ;
#284 = VERTEX_POINT ( 'NONE', #329 ) ;
#285 = ADVANCED_FACE ( 'NONE', ( #486 ), #420, .F. ) ;
#286 = DIRECTION ( 'NONE',  ( 0.000000000000000000, 1.000000000000000000, 0.000000000000000000 ) ) ;
#287 = DIRECTION ( 'NONE',  ( -1.156482317317871725E-16, 1.000000000000000000, 0.000000000000000000 ) ) ;
#288 = VERTEX_POINT ( 'NONE', #176 ) ;
#289 = PLANE ( 'NONE',  #312 ) ;
#290 = PLANE ( 'NONE',  #236 ) ;
#291 = ORIENTED_EDGE ( 'NONE', *, *, #348, .F. ) ;
#292 = PLANE ( 'NONE',  #30 ) ;
#293 = CARTESIAN_POINT ( 'NONE',  ( -12.49999999999999289, -50.00000000000000711, -4.999999999999997335 ) ) ;
#294 = VECTOR ( 'NONE', #377, 1000.000000000000000 ) ;
#295 = ORIENTED_EDGE ( 'NONE', *, *, #380, .T. ) ;
#296 = CARTESIAN_POINT ( 'NONE',  ( -60.00000000000001421, -50.00000000000000711, -10.00000000000000178 ) ) ;
#297 = CARTESIAN_POINT ( 'NONE',  ( 34.99999999999999289, -49.99999999999999289, 40.00000000000000000 ) ) ;
#298 = ORIENTED_EDGE ( 'NONE', *, *, #345, .T. ) ;
#299 = PERSON_AND_ORGANIZATION ( #94, #492 ) ;
#300 = MECHANICAL_CONTEXT ( 'NONE', #130, 'mechanical' ) ;
#301 = APPROVAL_PERSON_ORGANIZATION ( #107, #174, #141 ) ;
#302 = CARTESIAN_POINT ( 'NONE',  ( -35.00000000000000711, -5.000000000000011546, -10.00000000000000178 ) ) ;
#303 = SHAPE_DEFINITION_REPRESENTATION ( #262, #305 ) ;
#304 = EDGE_CURVE ( 'NONE', #441, #219, #61, .T. ) ;
#305 = ADVANCED_BREP_SHAPE_REPRESENTATION ( 'Bauteil_B', ( #463, #438 ), #361 ) ;
#306 = APPROVAL_ROLE ( '' ) ;
#307 = VECTOR ( 'NONE', #205, 1000.000000000000000 ) ;
#308 = EDGE_CURVE ( 'NONE', #366, #356, #333, .T. ) ;
#309 = DIRECTION ( 'NONE',  ( -1.000000000000000000, -0.000000000000000000, -0.000000000000000000 ) ) ;
#310 =( NAMED_UNIT ( * ) SI_UNIT ( $, .STERADIAN. ) SOLID_ANGLE_UNIT ( ) );
#311 = DIRECTION ( 'NONE',  ( -1.000000000000000000, -1.387778780781445429E-16, -0.000000000000000000 ) ) ;
#312 = AXIS2_PLACEMENT_3D ( 'NONE', #128, #419, #407 ) ;
#313 = DIRECTION ( 'NONE',  ( -1.000000000000000000, -1.387778780781445676E-16, 0.000000000000000000 ) ) ;
#314 = FACE_OUTER_BOUND ( 'NONE', #45, .T. ) ;
#315 = AXIS2_PLACEMENT_3D ( 'NONE', #80, #394, #46 ) ;
#316 = CARTESIAN_POINT ( 'NONE',  ( -60.00000000000001421, -50.00000000000000711, -40.00000000000000000 ) ) ;
#317 = APPLICATION_CONTEXT ( 'configuration controlled 3d designs of mechanical parts and assemblies' ) ;
#318 = EDGE_CURVE ( 'NONE', #219, #14, #255, .T. ) ;
#319 = PLANE ( 'NONE',  #315 ) ;
#320 = EDGE_LOOP ( 'NONE', ( #179, #11, #59, #459, #239, #324, #154 ) ) ;
#321 = DIRECTION ( 'NONE',  ( -1.387778780781445676E-16, 1.000000000000000000, 0.000000000000000000 ) ) ;
#322 = ADVANCED_FACE ( 'NONE', ( #401 ), #51, .F. ) ;
#323 = DIRECTION ( 'NONE',  ( 0.000000000000000000, 0.000000000000000000, -1.000000000000000000 ) ) ;
#324 = ORIENTED_EDGE ( 'NONE', *, *, #224, .T. ) ;
#325 = DIRECTION ( 'NONE',  ( -0.000000000000000000, -0.000000000000000000, -1.000000000000000000 ) ) ;
#326 = FACE_OUTER_BOUND ( 'NONE', #483, .T. ) ;
#327 = ORIENTED_EDGE ( 'NONE', *, *, #363, .F. ) ;
#328 = LINE ( 'NONE', #90, #382 ) ;
#329 = CARTESIAN_POINT ( 'NONE',  ( -60.00000000000001421, -50.00000000000000711, -10.00000000000000178 ) ) ;
#330 = VECTOR ( 'NONE', #454, 1000.000000000000000 ) ;
#331 = EDGE_LOOP ( 'NONE', ( #399, #406, #245, #62 ) ) ;
#332 = FACE_OUTER_BOUND ( 'NONE', #208, .T. ) ;
#333 = LINE ( 'NONE', #490, #357 ) ;
#334 = VERTEX_POINT ( 'NONE', #469 ) ;
#335 = CARTESIAN_POINT ( 'NONE',  ( 34.99999999999999289, -49.99999999999999289, -40.00000000000000000 ) ) ;
#336 = CARTESIAN_POINT ( 'NONE',  ( -12.49999999999999289, -50.00000000000000711, -4.999999999999997335 ) ) ;
#337 = SECURITY_CLASSIFICATION ( '', '', #105 ) ;
#338 = CARTESIAN_POINT ( 'NONE',  ( -12.50000000000000000, -20.00000000000001066, -4.999999999999997335 ) ) ;
#339 = ORIENTED_EDGE ( 'NONE', *, *, #73, .F. ) ;
#340 = PERSON_AND_ORGANIZATION ( #94, #492 ) ;
#341 = LINE ( 'NONE', #408, #214 ) ;
#342 = AXIS2_PLACEMENT_3D ( 'NONE', #358, #6, #386 ) ;
#343 = CALENDAR_DATE ( 2024, 19, 8 ) ;
#344 = LINE ( 'NONE', #28, #199 ) ;
#345 = EDGE_CURVE ( 'NONE', #56, #196, #115, .T. ) ;
#346 = PERSON_AND_ORGANIZATION ( #94, #492 ) ;
#347 = PERSON_AND_ORGANIZATION_ROLE ( 'creator' ) ;
#348 = EDGE_CURVE ( 'NONE', #14, #334, #474, .T. ) ;
#349 = DIRECTION ( 'NONE',  ( 0.000000000000000000, -1.000000000000000000, 0.000000000000000000 ) ) ;
#350 = COORDINATED_UNIVERSAL_TIME_OFFSET ( 1, 0, .AHEAD. ) ;
#351 = VECTOR ( 'NONE', #27, 1000.000000000000000 ) ;
#352 = CARTESIAN_POINT ( 'NONE',  ( -35.00000000000000711, -5.000000000000011546, 40.00000000000000000 ) ) ;
#353 = VERTEX_POINT ( 'NONE', #44 ) ;
#354 = LINE ( 'NONE', #275, #155 ) ;
#355 = FACE_OUTER_BOUND ( 'NONE', #233, .T. ) ;
#356 = VERTEX_POINT ( 'NONE', #190 ) ;
#357 = VECTOR ( 'NONE', #98, 1000.000000000000000 ) ;
#358 = CARTESIAN_POINT ( 'NONE',  ( 34.99999999999999289, -49.99999999999999289, 40.00000000000000000 ) ) ;
#359 = EDGE_CURVE ( 'NONE', #356, #14, #354, .T. ) ;
#360 = CARTESIAN_POINT ( 'NONE',  ( -12.50000000000000000, -20.00000000000001066, -4.999999999999997335 ) ) ;
#361 =( GEOMETRIC_REPRESENTATION_CONTEXT ( 3 ) GLOBAL_UNCERTAINTY_ASSIGNED_CONTEXT ( ( #383 ) ) GLOBAL_UNIT_ASSIGNED_CONTEXT ( ( #489, #242, #310 ) ) REPRESENTATION_CONTEXT ( 'NONE', 'WORKASPACE' ) );
#362 = EDGE_LOOP ( 'NONE', ( #443, #421, #157, #134 ) ) ;
#363 = EDGE_CURVE ( 'NONE', #219, #403, #254, .T. ) ;
#364 = ORIENTED_EDGE ( 'NONE', *, *, #153, .F. ) ;
#365 = DIRECTION ( 'NONE',  ( 1.000000000000000000, -0.000000000000000000, -0.000000000000000000 ) ) ;
#366 = VERTEX_POINT ( 'NONE', #367 ) ;
#367 = CARTESIAN_POINT ( 'NONE',  ( -35.00000000000000711, 50.00000000000000711, 9.999999999999896971 ) ) ;
#368 = LINE ( 'NONE', #336, #265 ) ;
#369 = ORIENTED_EDGE ( 'NONE', *, *, #153, .T. ) ;
#370 = CARTESIAN_POINT ( 'NONE',  ( -35.00000000000000711, -49.99999999999999289, 40.00000000000000000 ) ) ;
#371 = ORIENTED_EDGE ( 'NONE', *, *, #363, .T. ) ;
#372 = LINE ( 'NONE', #175, #476 ) ;
#373 = CARTESIAN_POINT ( 'NONE',  ( -12.49999999999999289, -50.00000000000000711, -4.999999999999997335 ) ) ;
#374 = DIRECTION ( 'NONE',  ( -0.000000000000000000, 0.7071067811865462405, -0.7071067811865489050 ) ) ;
#375 = ORIENTED_EDGE ( 'NONE', *, *, #73, .T. ) ;
#376 = EDGE_CURVE ( 'NONE', #403, #137, #201, .T. ) ;
#377 = DIRECTION ( 'NONE',  ( -0.000000000000000000, 1.000000000000000000, 0.000000000000000000 ) ) ;
#378 = DIRECTION ( 'NONE',  ( -1.000000000000000000, 0.000000000000000000, -0.000000000000000000 ) ) ;
#379 = VECTOR ( 'NONE', #138, 1000.000000000000000 ) ;
#380 = EDGE_CURVE ( 'NONE', #284, #250, #166, .T. ) ;
#381 = DIRECTION ( 'NONE',  ( 1.000000000000000000, 0.000000000000000000, 0.000000000000000000 ) ) ;
#382 = VECTOR ( 'NONE', #365, 1000.000000000000000 ) ;
#383 = UNCERTAINTY_MEASURE_WITH_UNIT (LENGTH_MEASURE( 1.000000000000000082E-05 ), #489, 'distance_accuracy_value', 'NONE');
#384 = APPLICATION_PROTOCOL_DEFINITION ( 'international standard', 'config_control_design', 1994, #130 ) ;
#385 = LINE ( 'NONE', #41, #465 ) ;
#386 = DIRECTION ( 'NONE',  ( 0.000000000000000000, 0.000000000000000000, 1.000000000000000000 ) ) ;
#387 = EDGE_LOOP ( 'NONE', ( #295, #491, #495, #88 ) ) ;
#388 = DIRECTION ( 'NONE',  ( -1.000000000000000000, 0.000000000000000000, 0.000000000000000000 ) ) ;
#389 = ADVANCED_FACE ( 'NONE', ( #209 ), #19, .F. ) ;
#390 = PLANE ( 'NONE',  #152 ) ;
#391 = CC_DESIGN_SECURITY_CLASSIFICATION ( #337, ( #12 ) ) ;
#392 = EDGE_LOOP ( 'NONE', ( #100, #93, #298, #446 ) ) ;
#393 = EDGE_CURVE ( 'NONE', #250, #48, #63, .T. ) ;
#394 = DIRECTION ( 'NONE',  ( 0.000000000000000000, 0.000000000000000000, -1.000000000000000000 ) ) ;
#395 = VERTEX_POINT ( 'NONE', #204 ) ;
#396 = VECTOR ( 'NONE', #112, 1000.000000000000000 ) ;
#397 = LINE ( 'NONE', #149, #195 ) ;
#398 = EDGE_CURVE ( 'NONE', #119, #189, #163, .T. ) ;
#399 = ORIENTED_EDGE ( 'NONE', *, *, #272, .F. ) ;
#400 = APPROVAL_PERSON_ORGANIZATION ( #228, #252, #182 ) ;
#401 = FACE_OUTER_BOUND ( 'NONE', #140, .T. ) ;
#402 = ORIENTED_EDGE ( 'NONE', *, *, #207, .T. ) ;
#403 = VERTEX_POINT ( 'NONE', #478 ) ;
#404 = CARTESIAN_POINT ( 'NONE',  ( -35.00000000000000711, -49.99999999999999289, -10.00000000000000178 ) ) ;
#405 = CLOSED_SHELL ( 'NONE', ( #389, #50, #471, #455, #77, #266, #108, #285, #1, #412, #281, #322, #231, #227 ) ) ;
#406 = ORIENTED_EDGE ( 'NONE', *, *, #308, .T. ) ;
#407 = DIRECTION ( 'NONE',  ( 0.000000000000000000, -0.000000000000000000, -1.000000000000000000 ) ) ;
#408 = CARTESIAN_POINT ( 'NONE',  ( -35.00000000000000711, -49.99999999999999289, -40.00000000000000000 ) ) ;
#409 = ORIENTED_EDGE ( 'NONE', *, *, #38, .F. ) ;
#410 = DIRECTION ( 'NONE',  ( 0.000000000000000000, -0.000000000000000000, 1.000000000000000000 ) ) ;
#411 = DIRECTION ( 'NONE',  ( -1.000000000000000000, 0.000000000000000000, -0.000000000000000000 ) ) ;
#412 = ADVANCED_FACE ( 'NONE', ( #213 ), #292, .F. ) ;
#413 = ORIENTED_EDGE ( 'NONE', *, *, #55, .T. ) ;
#414 = DIRECTION ( 'NONE',  ( 1.000000000000000000, 0.000000000000000000, 0.000000000000000000 ) ) ;
#415 = DIRECTION ( 'NONE',  ( -0.000000000000000000, -0.000000000000000000, -1.000000000000000000 ) ) ;
#416 = CC_DESIGN_PERSON_AND_ORGANIZATION_ASSIGNMENT ( #340, #72, ( #433 ) ) ;
#417 = CARTESIAN_POINT ( 'NONE',  ( 34.99999999999999289, 20.00000000000002487, 40.00000000000000000 ) ) ;
#418 = ORIENTED_EDGE ( 'NONE', *, *, #191, .T. ) ;
#419 = DIRECTION ( 'NONE',  ( 0.000000000000000000, -1.000000000000000000, 0.000000000000000000 ) ) ;
#420 = PLANE ( 'NONE',  #85 ) ;
#421 = ORIENTED_EDGE ( 'NONE', *, *, #248, .F. ) ;
#422 = CALENDAR_DATE ( 2024, 19, 8 ) ;
#423 = DIRECTION ( 'NONE',  ( -1.000000000000000000, 0.000000000000000000, -0.000000000000000000 ) ) ;
#424 = CALENDAR_DATE ( 2024, 19, 8 ) ;
#425 = PRODUCT ( 'Bauteil_B', 'Bauteil_B', '', ( #300 ) ) ;
#426 = AXIS2_PLACEMENT_3D ( 'NONE', #33, #349, #267 ) ;
#427 = CALENDAR_DATE ( 2024, 19, 8 ) ;
#428 = VECTOR ( 'NONE', #202, 1000.000000000000000 ) ;
#429 = COORDINATED_UNIVERSAL_TIME_OFFSET ( 1, 0, .AHEAD. ) ;
#430 = LOCAL_TIME ( 14, 21, 24.00000000000000000, #501 ) ;
#431 = CARTESIAN_POINT ( 'NONE',  ( 12.50000000000000355, -20.00000000000000711, -4.999999999999997335 ) ) ;
#432 = CARTESIAN_POINT ( 'NONE',  ( -60.00000000000001421, -5.000000000000014211, -40.00000000000000000 ) ) ;
#433 = PRODUCT_DEFINITION ( 'UNKNOWN', '', #12, #2 ) ;
#434 = VECTOR ( 'NONE', #374, 1000.000000000000000 ) ;
#435 = EDGE_CURVE ( 'NONE', #189, #403, #372, .T. ) ;
#436 = DIRECTION ( 'NONE',  ( -1.156482317317871478E-16, 1.000000000000000000, 0.000000000000000000 ) ) ;
#437 = EDGE_CURVE ( 'NONE', #119, #288, #328, .T. ) ;
#438 = AXIS2_PLACEMENT_3D ( 'NONE', #226, #142, #381 ) ;
#439 = VERTEX_POINT ( 'NONE', #485 ) ;
#440 = CARTESIAN_POINT ( 'NONE',  ( -12.50000000000000000, -20.00000000000001066, -4.999999999999997335 ) ) ;
#441 = VERTEX_POINT ( 'NONE', #493 ) ;
#442 = VECTOR ( 'NONE', #415, 1000.000000000000000 ) ;
#443 = ORIENTED_EDGE ( 'NONE', *, *, #484, .T. ) ;
#444 = LOCAL_TIME ( 14, 21, 24.00000000000000000, #429 ) ;
#445 = DIRECTION ( 'NONE',  ( -0.000000000000000000, -0.000000000000000000, -1.000000000000000000 ) ) ;
#446 = ORIENTED_EDGE ( 'NONE', *, *, #38, .T. ) ;
#447 = FACE_OUTER_BOUND ( 'NONE', #331, .T. ) ;
#448 = CARTESIAN_POINT ( 'NONE',  ( 0.000000000000000000, 0.000000000000000000, -4.999999999999997335 ) ) ;
#449 = ORIENTED_EDGE ( 'NONE', *, *, #187, .T. ) ;
#450 = DIRECTION ( 'NONE',  ( 2.312964634635742957E-16, -1.000000000000000000, -0.000000000000000000 ) ) ;
#451 = EDGE_CURVE ( 'NONE', #334, #473, #246, .T. ) ;
#452 = EDGE_LOOP ( 'NONE', ( #418, #197, #104, #47 ) ) ;
#453 = VECTOR ( 'NONE', #283, 1000.000000000000000 ) ;
#454 = DIRECTION ( 'NONE',  ( -0.000000000000000000, -0.000000000000000000, 1.000000000000000000 ) ) ;
#455 = ADVANCED_FACE ( 'NONE', ( #332 ), #170, .F. ) ;
#456 = ORIENTED_EDGE ( 'NONE', *, *, #435, .T. ) ;
#457 = CARTESIAN_POINT ( 'NONE',  ( -35.00000000000000711, -49.99999999999999289, 40.00000000000000000 ) ) ;
#458 = DIRECTION ( 'NONE',  ( 0.000000000000000000, 0.000000000000000000, -1.000000000000000000 ) ) ;
#459 = ORIENTED_EDGE ( 'NONE', *, *, #5, .T. ) ;
#460 = PERSON_AND_ORGANIZATION_ROLE ( 'design_supplier' ) ;
#461 = DATE_TIME_ROLE ( 'creation_date' ) ;
#462 = AXIS2_PLACEMENT_3D ( 'NONE', #370, #414, #323 ) ;
#463 = MANIFOLD_SOLID_BREP ( 'Schnitt-Linear austragen1', #405 ) ;
#464 = DATE_AND_TIME ( #343, #177 ) ;
#465 = VECTOR ( 'NONE', #186, 1000.000000000000000 ) ;
#466 = APPLICATION_PROTOCOL_DEFINITION ( 'international standard', 'config_control_design', 1994, #317 ) ;
#467 = CC_DESIGN_PERSON_AND_ORGANIZATION_ASSIGNMENT ( #299, #460, ( #12 ) ) ;
#468 = DIRECTION ( 'NONE',  ( -0.000000000000000000, -0.000000000000000000, 1.000000000000000000 ) ) ;
#469 = CARTESIAN_POINT ( 'NONE',  ( -35.00000000000000711, 20.00000000000002487, 40.00000000000000000 ) ) ;
#470 = LINE ( 'NONE', #316, #4 ) ;
#471 = ADVANCED_FACE ( 'NONE', ( #447 ), #289, .F. ) ;
#472 = VECTOR ( 'NONE', #143, 1000.000000000000000 ) ;
#473 = VERTEX_POINT ( 'NONE', #15 ) ;
#474 = LINE ( 'NONE', #230, #249 ) ;
#475 = CARTESIAN_POINT ( 'NONE',  ( -60.00000000000001421, -5.000000000000014211, -10.00000000000000178 ) ) ;
#476 = VECTOR ( 'NONE', #481, 1000.000000000000000 ) ;
#477 = ORIENTED_EDGE ( 'NONE', *, *, #169, .F. ) ;
#478 = CARTESIAN_POINT ( 'NONE',  ( 34.99999999999999289, -49.99999999999999289, -40.00000000000000000 ) ) ;
#479 = EDGE_CURVE ( 'NONE', #473, #250, #57, .T. ) ;
#480 = ORIENTED_EDGE ( 'NONE', *, *, #135, .F. ) ;
#481 = DIRECTION ( 'NONE',  ( 1.000000000000000000, 0.000000000000000000, 0.000000000000000000 ) ) ;
#482 = CARTESIAN_POINT ( 'NONE',  ( -35.00000000000000711, -49.99999999999999289, -10.00000000000000178 ) ) ;
#483 = EDGE_LOOP ( 'NONE', ( #369, #339, #241, #18 ) ) ;
#484 = EDGE_CURVE ( 'NONE', #69, #203, #101, .T. ) ;
#485 = CARTESIAN_POINT ( 'NONE',  ( -12.49999999999999289, -50.00000000000000711, -4.999999999999997335 ) ) ;
#486 = FACE_OUTER_BOUND ( 'NONE', #387, .T. ) ;
#487 = AXIS2_PLACEMENT_3D ( 'NONE', #360, #321, #313 ) ;
#488 = ORIENTED_EDGE ( 'NONE', *, *, #359, .T. ) ;
#489 =( LENGTH_UNIT ( ) NAMED_UNIT ( * ) SI_UNIT ( .MILLI., .METRE. ) );
#490 = CARTESIAN_POINT ( 'NONE',  ( -35.00000000000000711, 50.00000000000000711, 9.999999999999896971 ) ) ;
#491 = ORIENTED_EDGE ( 'NONE', *, *, #393, .T. ) ;
#492 = ORGANIZATION ( 'UNSPECIFIED', 'UNSPECIFIED', '' ) ;
#493 = CARTESIAN_POINT ( 'NONE',  ( 12.50000000000000355, -49.99999999999999289, 40.00000000000000000 ) ) ;
#494 = LINE ( 'NONE', #68, #442 ) ;
#495 = ORIENTED_EDGE ( 'NONE', *, *, #191, .F. ) ;
#496 = COORDINATED_UNIVERSAL_TIME_OFFSET ( 1, 0, .AHEAD. ) ;
#497 = LINE ( 'NONE', #64, #280 ) ;
#498 = DIRECTION ( 'NONE',  ( 1.000000000000000000, 0.000000000000000000, 0.000000000000000000 ) ) ;
#499 = APPROVAL_STATUS ( 'not_yet_approved' ) ;
#500 = APPROVAL_PERSON_ORGANIZATION ( #346, #86, #306 ) ;
#501 = COORDINATED_UNIVERSAL_TIME_OFFSET ( 1, 0, .AHEAD. ) ;
ENDSEC;
END-ISO-10303-21;
