ISO-10303-21;
HEADER;
FILE_DESCRIPTION (( 'STEP AP203' ),
    '1' );
FILE_NAME ('Bauteil_E.STEP',
    '2024-08-19T13:53:31',
    ( '' ),
    ( '' ),
    'SwSTEP 2.0',
    'SolidWorks 2023',
    '' );
FILE_SCHEMA (( 'CONFIG_CONTROL_DESIGN' ));
ENDSEC;

DATA;
#1 = DIRECTION ( 'NONE',  ( -1.000000000000000000, -0.000000000000000000, -0.000000000000000000 ) ) ;
#2 = APPROVAL ( #382, 'UNSPECIFIED' ) ;
#3 = CIRCLE ( 'NONE', #77, 22.00000000000000000 ) ;
#4 = CARTESIAN_POINT ( 'NONE',  ( 0.000000000000000000, 19.99999999999999645, 0.000000000000000000 ) ) ;
#5 = FACE_OUTER_BOUND ( 'NONE', #288, .T. ) ;
#6 = ORIENTED_EDGE ( 'NONE', *, *, #191, .T. ) ;
#7 = EDGE_CURVE ( 'NONE', #54, #386, #270, .T. ) ;
#8 = CC_DESIGN_APPROVAL ( #223, ( #370 ) ) ;
#9 = PERSON_AND_ORGANIZATION_ROLE ( 'design_owner' ) ;
#10 =( GEOMETRIC_REPRESENTATION_CONTEXT ( 3 ) GLOBAL_UNCERTAINTY_ASSIGNED_CONTEXT ( ( #79 ) ) GLOBAL_UNIT_ASSIGNED_CONTEXT ( ( #196, #122, #379 ) ) REPRESENTATION_CONTEXT ( 'NONE', 'WORKASPACE' ) );
#11 = VERTEX_POINT ( 'NONE', #261 ) ;
#12 = AXIS2_PLACEMENT_3D ( 'NONE', #384, #208, #87 ) ;
#13 = APPLICATION_CONTEXT ( 'configuration controlled 3d designs of mechanical parts and assemblies' ) ;
#14 = CARTESIAN_POINT ( 'NONE',  ( 4.000000000000000000, 0.000000000000000000, 19.99999999999999645 ) ) ;
#15 = EDGE_LOOP ( 'NONE', ( #352, #140, #222, #45 ) ) ;
#16 = DIRECTION ( 'NONE',  ( 0.000000000000000000, -1.000000000000000000, 0.000000000000000000 ) ) ;
#17 = ORIENTED_EDGE ( 'NONE', *, *, #29, .F. ) ;
#18 = CLOSED_SHELL ( 'NONE', ( #409, #85, #115, #123, #75, #380, #52, #240, #424, #419, #255, #19, #129 ) ) ;
#19 = ADVANCED_FACE ( 'NONE', ( #355 ), #148, .F. ) ;
#20 = CARTESIAN_POINT ( 'NONE',  ( 0.000000000000000000, 0.000000000000000000, -23.99999999999999645 ) ) ;
#21 = CARTESIAN_POINT ( 'NONE',  ( 4.000000000000000000, 2.939152317953647500E-15, 23.99999999999999645 ) ) ;
#22 = DATE_TIME_ROLE ( 'creation_date' ) ;
#23 = DIRECTION ( 'NONE',  ( 0.000000000000000000, -1.224646799147351482E-16, 1.000000000000000000 ) ) ;
#24 = AXIS2_PLACEMENT_3D ( 'NONE', #101, #362, #168 ) ;
#25 = EDGE_LOOP ( 'NONE', ( #320, #353 ) ) ;
#26 = ORIENTED_EDGE ( 'NONE', *, *, #347, .F. ) ;
#27 = CYLINDRICAL_SURFACE ( 'NONE', #215, 22.00000000000000000 ) ;
#28 = AXIS2_PLACEMENT_3D ( 'NONE', #194, #219, #350 ) ;
#29 = EDGE_CURVE ( 'NONE', #403, #313, #199, .T. ) ;
#30 = DIRECTION ( 'NONE',  ( 0.000000000000000000, 0.000000000000000000, -1.000000000000000000 ) ) ;
#31 = ORGANIZATION ( 'UNSPECIFIED', 'UNSPECIFIED', '' ) ;
#32 = ORIENTED_EDGE ( 'NONE', *, *, #347, .T. ) ;
#33 = DATE_TIME_ROLE ( 'classification_date' ) ;
#34 = DIRECTION ( 'NONE',  ( 0.000000000000000000, 0.000000000000000000, -1.000000000000000000 ) ) ;
#35 = CARTESIAN_POINT ( 'NONE',  ( 0.000000000000000000, 3.367778697655221307E-15, -27.50000000000000000 ) ) ;
#36 = DIRECTION ( 'NONE',  ( -1.000000000000000000, -0.000000000000000000, -0.000000000000000000 ) ) ;
#37 = LINE ( 'NONE', #404, #243 ) ;
#38 = EDGE_CURVE ( 'NONE', #54, #305, #371, .T. ) ;
#39 = DIRECTION ( 'NONE',  ( 0.000000000000000000, 0.000000000000000000, -1.000000000000000000 ) ) ;
#40 = EDGE_CURVE ( 'NONE', #265, #126, #278, .T. ) ;
#41 = AXIS2_PLACEMENT_3D ( 'NONE', #184, #306, #302 ) ;
#42 = DIRECTION ( 'NONE',  ( 1.000000000000000000, 0.000000000000000000, 0.000000000000000000 ) ) ;
#43 = EDGE_CURVE ( 'NONE', #173, #386, #189, .T. ) ;
#44 = DIRECTION ( 'NONE',  ( 0.000000000000000000, 0.000000000000000000, 1.000000000000000000 ) ) ;
#45 = ORIENTED_EDGE ( 'NONE', *, *, #284, .F. ) ;
#46 = APPLICATION_PROTOCOL_DEFINITION ( 'international standard', 'config_control_design', 1994, #13 ) ;
#47 = LOCAL_TIME ( 15, 53, 31.00000000000000000, #174 ) ;
#48 = AXIS2_PLACEMENT_3D ( 'NONE', #149, #342, #112 ) ;
#49 = APPLICATION_PROTOCOL_DEFINITION ( 'international standard', 'config_control_design', 1994, #345 ) ;
#50 = CARTESIAN_POINT ( 'NONE',  ( 32.00000000000000000, 0.000000000000000000, 0.000000000000000000 ) ) ;
#51 = ORIENTED_EDGE ( 'NONE', *, *, #390, .T. ) ;
#52 = ADVANCED_FACE ( 'NONE', ( #162 ), #385, .T. ) ;
#53 = DIRECTION ( 'NONE',  ( -1.000000000000000000, -0.000000000000000000, -0.000000000000000000 ) ) ;
#54 = VERTEX_POINT ( 'NONE', #14 ) ;
#55 = ORIENTED_EDGE ( 'NONE', *, *, #146, .F. ) ;
#56 = CALENDAR_DATE ( 2024, 19, 8 ) ;
#57 = FACE_OUTER_BOUND ( 'NONE', #86, .T. ) ;
#58 = EDGE_LOOP ( 'NONE', ( #426, #351, #164, #296 ) ) ;
#59 = PERSON_AND_ORGANIZATION_ROLE ( 'creator' ) ;
#60 = CARTESIAN_POINT ( 'NONE',  ( 3.000000000000000000, 0.000000000000000000, 0.000000000000000000 ) ) ;
#61 = EDGE_CURVE ( 'NONE', #11, #378, #89, .T. ) ;
#62 = CIRCLE ( 'NONE', #398, 22.00000000000000000 ) ;
#63 = EDGE_LOOP ( 'NONE', ( #322, #286, #117, #55 ) ) ;
#64 = DATE_AND_TIME ( #267, #239 ) ;
#65 = FACE_OUTER_BOUND ( 'NONE', #248, .T. ) ;
#66 = DIRECTION ( 'NONE',  ( 0.000000000000000000, 0.000000000000000000, 1.000000000000000000 ) ) ;
#67 = EDGE_LOOP ( 'NONE', ( #192, #413, #51, #26 ) ) ;
#68 = DIRECTION ( 'NONE',  ( 1.000000000000000000, 0.000000000000000000, 0.000000000000000000 ) ) ;
#69 = CARTESIAN_POINT ( 'NONE',  ( 3.000000000000000888, 2.939152317953647894E-15, -24.00000000000000000 ) ) ;
#70 = CC_DESIGN_DATE_AND_TIME_ASSIGNMENT ( #64, #33, ( #370 ) ) ;
#71 = DIRECTION ( 'NONE',  ( 0.000000000000000000, 0.000000000000000000, -1.000000000000000000 ) ) ;
#72 = APPROVAL_PERSON_ORGANIZATION ( #367, #337, #427 ) ;
#73 = AXIS2_PLACEMENT_3D ( 'NONE', #330, #16, #204 ) ;
#74 = DIRECTION ( 'NONE',  ( 0.000000000000000000, 0.000000000000000000, -1.000000000000000000 ) ) ;
#75 = ADVANCED_FACE ( 'NONE', ( #383 ), #264, .T. ) ;
#76 = CARTESIAN_POINT ( 'NONE',  ( 4.000000000000000000, 0.000000000000000000, 0.000000000000000000 ) ) ;
#77 = AXIS2_PLACEMENT_3D ( 'NONE', #147, #105, #44 ) ;
#78 = DIRECTION ( 'NONE',  ( -1.000000000000000000, -0.000000000000000000, -0.000000000000000000 ) ) ;
#79 = UNCERTAINTY_MEASURE_WITH_UNIT (LENGTH_MEASURE( 1.000000000000000082E-05 ), #196, 'distance_accuracy_value', 'NONE');
#80 = CC_DESIGN_DATE_AND_TIME_ASSIGNMENT ( #259, #22, ( #430 ) ) ;
#81 = ORIENTED_EDGE ( 'NONE', *, *, #40, .T. ) ;
#82 = EDGE_CURVE ( 'NONE', #378, #11, #131, .T. ) ;
#83 = AXIS2_PLACEMENT_3D ( 'NONE', #341, #374, #39 ) ;
#84 = DIRECTION ( 'NONE',  ( 0.000000000000000000, 0.000000000000000000, 1.000000000000000000 ) ) ;
#85 = ADVANCED_FACE ( 'NONE', ( #65 ), #274, .F. ) ;
#86 = EDGE_LOOP ( 'NONE', ( #253, #251, #32, #292 ) ) ;
#87 = DIRECTION ( 'NONE',  ( 0.000000000000000000, 0.000000000000000000, -1.000000000000000000 ) ) ;
#88 = DIRECTION ( 'NONE',  ( 0.000000000000000000, 1.224646799147353454E-16, 1.000000000000000000 ) ) ;
#89 = CIRCLE ( 'NONE', #211, 20.00000000000000000 ) ;
#90 = VERTEX_POINT ( 'NONE', #221 ) ;
#91 = FACE_OUTER_BOUND ( 'NONE', #97, .T. ) ;
#92 = AXIS2_PLACEMENT_3D ( 'NONE', #368, #209, #244 ) ;
#93 = VERTEX_POINT ( 'NONE', #103 ) ;
#94 = DATE_AND_TIME ( #357, #421 ) ;
#95 = DIRECTION ( 'NONE',  ( -1.000000000000000000, 0.000000000000000000, -0.000000000000000000 ) ) ;
#96 = VERTEX_POINT ( 'NONE', #263 ) ;
#97 = EDGE_LOOP ( 'NONE', ( #415, #297 ) ) ;
#98 = PERSON_AND_ORGANIZATION_ROLE ( 'classification_officer' ) ;
#99 = DIRECTION ( 'NONE',  ( -0.000000000000000000, 1.000000000000000000, 1.224646799147353207E-16 ) ) ;
#100 = VECTOR ( 'NONE', #396, 1000.000000000000000 ) ;
#101 = CARTESIAN_POINT ( 'NONE',  ( 32.00000000000000000, 0.000000000000000000, 0.000000000000000000 ) ) ;
#102 = PERSON_AND_ORGANIZATION_ROLE ( 'creator' ) ;
#103 = CARTESIAN_POINT ( 'NONE',  ( 3.000000000000000000, 3.367778697655221307E-15, -27.50000000000000000 ) ) ;
#104 = APPROVAL_DATE_TIME ( #167, #223 ) ;
#105 = DIRECTION ( 'NONE',  ( 1.000000000000000000, 0.000000000000000000, 0.000000000000000000 ) ) ;
#106 = CC_DESIGN_PERSON_AND_ORGANIZATION_ASSIGNMENT ( #335, #59, ( #188 ) ) ;
#107 = CARTESIAN_POINT ( 'NONE',  ( 32.00000000000000000, 0.000000000000000000, 0.000000000000000000 ) ) ;
#108 = AXIS2_PLACEMENT_3D ( 'NONE', #107, #433, #113 ) ;
#109 = CARTESIAN_POINT ( 'NONE',  ( 5.000000000000000888, 0.000000000000000000, 22.00000000000000000 ) ) ;
#110 = TOROIDAL_SURFACE ( 'NONE', #295, 23.99999999999999645, 4.000000000000000000 ) ;
#111 = EDGE_CURVE ( 'NONE', #93, #220, #175, .T. ) ;
#112 = DIRECTION ( 'NONE',  ( 0.000000000000000000, 0.000000000000000000, 1.000000000000000000 ) ) ;
#113 = DIRECTION ( 'NONE',  ( 0.000000000000000000, 0.000000000000000000, 1.000000000000000000 ) ) ;
#114 = ORIENTED_EDGE ( 'NONE', *, *, #82, .T. ) ;
#115 = ADVANCED_FACE ( 'NONE', ( #334 ), #365, .F. ) ;
#116 = PERSON_AND_ORGANIZATION ( #304, #31 ) ;
#117 = ORIENTED_EDGE ( 'NONE', *, *, #272, .F. ) ;
#118 = VECTOR ( 'NONE', #200, 1000.000000000000000 ) ;
#119 = VECTOR ( 'NONE', #401, 1000.000000000000000 ) ;
#120 = EDGE_CURVE ( 'NONE', #386, #173, #160, .T. ) ;
#121 = AXIS2_PLACEMENT_3D ( 'NONE', #232, #431, #358 ) ;
#122 =( NAMED_UNIT ( * ) PLANE_ANGLE_UNIT ( ) SI_UNIT ( $, .RADIAN. ) );
#123 = ADVANCED_FACE ( 'NONE', ( #142 ), #27, .T. ) ;
#124 = DIRECTION ( 'NONE',  ( 0.000000000000000000, 0.000000000000000000, 1.000000000000000000 ) ) ;
#125 = DIRECTION ( 'NONE',  ( 1.000000000000000000, 0.000000000000000000, 0.000000000000000000 ) ) ;
#126 = VERTEX_POINT ( 'NONE', #236 ) ;
#127 = PERSON_AND_ORGANIZATION ( #304, #31 ) ;
#128 = DIRECTION ( 'NONE',  ( 0.000000000000000000, 0.000000000000000000, 1.000000000000000000 ) ) ;
#129 = ADVANCED_FACE ( 'NONE', ( #268 ), #308, .T. ) ;
#130 = ORIENTED_EDGE ( 'NONE', *, *, #40, .F. ) ;
#131 = CIRCLE ( 'NONE', #24, 20.00000000000000000 ) ;
#132 = ORIENTED_EDGE ( 'NONE', *, *, #316, .T. ) ;
#133 = APPROVAL_STATUS ( 'not_yet_approved' ) ;
#134 = DIRECTION ( 'NONE',  ( -1.000000000000000000, -0.000000000000000000, -0.000000000000000000 ) ) ;
#135 = CIRCLE ( 'NONE', #155, 27.50000000000000000 ) ;
#136 = ORIENTED_EDGE ( 'NONE', *, *, #366, .F. ) ;
#137 = DATE_AND_TIME ( #400, #425 ) ;
#138 = CARTESIAN_POINT ( 'NONE',  ( 0.000000000000000000, 0.000000000000000000, 27.50000000000000000 ) ) ;
#139 = VERTEX_POINT ( 'NONE', #301 ) ;
#140 = ORIENTED_EDGE ( 'NONE', *, *, #217, .T. ) ;
#141 = PERSON_AND_ORGANIZATION ( #304, #31 ) ;
#142 = FACE_OUTER_BOUND ( 'NONE', #346, .T. ) ;
#143 = AXIS2_PLACEMENT_3D ( 'NONE', #294, #336, #428 ) ;
#144 = AXIS2_PLACEMENT_3D ( 'NONE', #177, #99, #23 ) ;
#145 = FACE_BOUND ( 'NONE', #429, .T. ) ;
#146 = EDGE_CURVE ( 'NONE', #90, #139, #329, .T. ) ;
#147 = CARTESIAN_POINT ( 'NONE',  ( 5.000000000000000888, 0.000000000000000000, 0.000000000000000000 ) ) ;
#148 = TOROIDAL_SURFACE ( 'NONE', #376, 24.00000000000000000, 2.000000000000000000 ) ;
#149 = CARTESIAN_POINT ( 'NONE',  ( 3.000000000000000444, 0.000000000000000000, 0.000000000000000000 ) ) ;
#150 = AXIS2_PLACEMENT_3D ( 'NONE', #418, #260, #34 ) ;
#151 = FACE_BOUND ( 'NONE', #25, .T. ) ;
#152 = DIRECTION ( 'NONE',  ( 0.000000000000000000, 0.000000000000000000, 1.000000000000000000 ) ) ;
#153 = ORIENTED_EDGE ( 'NONE', *, *, #291, .F. ) ;
#154 = EDGE_LOOP ( 'NONE', ( #285, #327, #277, #258 ) ) ;
#155 = AXIS2_PLACEMENT_3D ( 'NONE', #180, #185, #369 ) ;
#156 = EDGE_CURVE ( 'NONE', #126, #96, #228, .T. ) ;
#157 = ORIENTED_EDGE ( 'NONE', *, *, #375, .T. ) ;
#158 = PRODUCT ( 'Bauteil_E', 'Bauteil_E', '', ( #349 ) ) ;
#159 = MANIFOLD_SOLID_BREP ( 'Fillet2', #18 ) ;
#160 = CIRCLE ( 'NONE', #143, 23.99999999999999645 ) ;
#161 = AXIS2_PLACEMENT_3D ( 'NONE', #60, #53, #128 ) ;
#162 = FACE_OUTER_BOUND ( 'NONE', #15, .T. ) ;
#163 = DIRECTION ( 'NONE',  ( -1.000000000000000000, -0.000000000000000000, -0.000000000000000000 ) ) ;
#164 = ORIENTED_EDGE ( 'NONE', *, *, #43, .F. ) ;
#165 = DIRECTION ( 'NONE',  ( -1.000000000000000000, -0.000000000000000000, -0.000000000000000000 ) ) ;
#166 = DIRECTION ( 'NONE',  ( 0.000000000000000000, 0.000000000000000000, 1.000000000000000000 ) ) ;
#167 = DATE_AND_TIME ( #298, #47 ) ;
#168 = DIRECTION ( 'NONE',  ( 0.000000000000000000, 0.000000000000000000, 1.000000000000000000 ) ) ;
#169 = PRODUCT_RELATED_PRODUCT_CATEGORY ( 'detail', '', ( #158 ) ) ;
#170 = EDGE_LOOP ( 'NONE', ( #283, #198 ) ) ;
#171 = CC_DESIGN_APPROVAL ( #337, ( #188 ) ) ;
#172 = DIRECTION ( 'NONE',  ( 0.000000000000000000, 0.000000000000000000, 1.000000000000000000 ) ) ;
#173 = VERTEX_POINT ( 'NONE', #20 ) ;
#174 = COORDINATED_UNIVERSAL_TIME_OFFSET ( 1, 0, .AHEAD. ) ;
#175 = LINE ( 'NONE', #35, #118 ) ;
#176 = EDGE_CURVE ( 'NONE', #326, #96, #319, .T. ) ;
#177 = CARTESIAN_POINT ( 'NONE',  ( 5.000000000000000888, 2.939152317953647894E-15, -24.00000000000000000 ) ) ;
#178 = CARTESIAN_POINT ( 'NONE',  ( 0.000000000000000000, 0.000000000000000000, 0.000000000000000000 ) ) ;
#179 = CARTESIAN_POINT ( 'NONE',  ( 0.000000000000000000, 0.000000000000000000, 0.000000000000000000 ) ) ;
#180 = CARTESIAN_POINT ( 'NONE',  ( 3.000000000000000000, 0.000000000000000000, 0.000000000000000000 ) ) ;
#181 = AXIS2_PLACEMENT_3D ( 'NONE', #331, #165, #254 ) ;
#182 = CIRCLE ( 'NONE', #161, 27.50000000000000000 ) ;
#183 = PRODUCT_DEFINITION_SHAPE ( 'NONE', 'NONE',  #430 ) ;
#184 = CARTESIAN_POINT ( 'NONE',  ( 3.000000000000000444, 0.000000000000000000, 0.000000000000000000 ) ) ;
#185 = DIRECTION ( 'NONE',  ( -1.000000000000000000, -0.000000000000000000, -0.000000000000000000 ) ) ;
#186 = CC_DESIGN_PERSON_AND_ORGANIZATION_ASSIGNMENT ( #262, #102, ( #430 ) ) ;
#187 = DIRECTION ( 'NONE',  ( 0.000000000000000000, 0.000000000000000000, 1.000000000000000000 ) ) ;
#188 = PRODUCT_DEFINITION_FORMATION_WITH_SPECIFIED_SOURCE ( 'ANY', '', #158, .NOT_KNOWN. ) ;
#189 = CIRCLE ( 'NONE', #315, 23.99999999999999645 ) ;
#190 = AXIS2_PLACEMENT_3D ( 'NONE', #338, #36, #212 ) ;
#191 = EDGE_CURVE ( 'NONE', #96, #313, #62, .T. ) ;
#192 = ORIENTED_EDGE ( 'NONE', *, *, #61, .F. ) ;
#193 = PERSON_AND_ORGANIZATION ( #304, #31 ) ;
#194 = CARTESIAN_POINT ( 'NONE',  ( 0.000000000000000000, 0.000000000000000000, 0.000000000000000000 ) ) ;
#195 = ORIENTED_EDGE ( 'NONE', *, *, #321, .T. ) ;
#196 =( LENGTH_UNIT ( ) NAMED_UNIT ( * ) SI_UNIT ( .MILLI., .METRE. ) );
#197 = DIRECTION ( 'NONE',  ( 0.000000000000000000, 0.000000000000000000, 1.000000000000000000 ) ) ;
#198 = ORIENTED_EDGE ( 'NONE', *, *, #284, .T. ) ;
#199 = CIRCLE ( 'NONE', #73, 2.000000000000001776 ) ;
#200 = DIRECTION ( 'NONE',  ( -1.000000000000000000, -0.000000000000000000, -0.000000000000000000 ) ) ;
#201 = CARTESIAN_POINT ( 'NONE',  ( 5.000000000000000888, 0.000000000000000000, 0.000000000000000000 ) ) ;
#202 = AXIS2_PLACEMENT_3D ( 'NONE', #178, #408, #213 ) ;
#203 = CARTESIAN_POINT ( 'NONE',  ( 3.000000000000000444, 27.50000000000000000, 0.000000000000000000 ) ) ;
#204 = DIRECTION ( 'NONE',  ( 0.000000000000000000, 0.000000000000000000, -1.000000000000000000 ) ) ;
#205 = COORDINATED_UNIVERSAL_TIME_OFFSET ( 1, 0, .AHEAD. ) ;
#206 = CARTESIAN_POINT ( 'NONE',  ( 0.000000000000000000, 2.694222958124176809E-15, -22.00000000000000000 ) ) ;
#207 = SHAPE_DEFINITION_REPRESENTATION ( #183, #245 ) ;
#208 = DIRECTION ( 'NONE',  ( 0.000000000000000000, -1.000000000000000000, 0.000000000000000000 ) ) ;
#209 = DIRECTION ( 'NONE',  ( -1.000000000000000000, 0.000000000000000000, -0.000000000000000000 ) ) ;
#210 = LOCAL_TIME ( 15, 53, 31.00000000000000000, #227 ) ;
#211 = AXIS2_PLACEMENT_3D ( 'NONE', #282, #163, #124 ) ;
#212 = DIRECTION ( 'NONE',  ( 0.000000000000000000, 0.000000000000000000, 1.000000000000000000 ) ) ;
#213 = DIRECTION ( 'NONE',  ( 0.000000000000000000, 0.000000000000000000, 1.000000000000000000 ) ) ;
#214 = CARTESIAN_POINT ( 'NONE',  ( 32.00000000000000000, 0.000000000000000000, 20.00000000000000000 ) ) ;
#215 = AXIS2_PLACEMENT_3D ( 'NONE', #299, #134, #197 ) ;
#216 = EDGE_CURVE ( 'NONE', #305, #173, #359, .T. ) ;
#217 = EDGE_CURVE ( 'NONE', #93, #90, #182, .T. ) ;
#218 = AXIS2_PLACEMENT_3D ( 'NONE', #50, #287, #84 ) ;
#219 = DIRECTION ( 'NONE',  ( -1.000000000000000000, -0.000000000000000000, -0.000000000000000000 ) ) ;
#220 = VERTEX_POINT ( 'NONE', #257 ) ;
#221 = CARTESIAN_POINT ( 'NONE',  ( 3.000000000000000000, 0.000000000000000000, 27.50000000000000000 ) ) ;
#222 = ORIENTED_EDGE ( 'NONE', *, *, #146, .T. ) ;
#223 = APPROVAL ( #133, 'UNSPECIFIED' ) ;
#224 = PLANE ( 'NONE',  #266 ) ;
#225 = ORIENTED_EDGE ( 'NONE', *, *, #316, .F. ) ;
#226 = ORIENTED_EDGE ( 'NONE', *, *, #321, .F. ) ;
#227 = COORDINATED_UNIVERSAL_TIME_OFFSET ( 1, 0, .AHEAD. ) ;
#228 = LINE ( 'NONE', #206, #100 ) ;
#229 = ORIENTED_EDGE ( 'NONE', *, *, #366, .T. ) ;
#230 = CIRCLE ( 'NONE', #202, 27.50000000000000000 ) ;
#231 = PERSON_AND_ORGANIZATION ( #304, #31 ) ;
#232 = CARTESIAN_POINT ( 'NONE',  ( 5.000000000000000888, 0.000000000000000000, 0.000000000000000000 ) ) ;
#233 = CC_DESIGN_PERSON_AND_ORGANIZATION_ASSIGNMENT ( #127, #364, ( #188 ) ) ;
#234 = DIRECTION ( 'NONE',  ( -1.000000000000000000, -0.000000000000000000, -0.000000000000000000 ) ) ;
#235 = APPROVAL_ROLE ( '' ) ;
#236 = CARTESIAN_POINT ( 'NONE',  ( 32.00000000000000000, 2.694222958124176809E-15, -22.00000000000000000 ) ) ;
#237 = DIRECTION ( 'NONE',  ( -1.000000000000000000, -0.000000000000000000, -0.000000000000000000 ) ) ;
#238 = LINE ( 'NONE', #269, #348 ) ;
#239 = LOCAL_TIME ( 15, 53, 31.00000000000000000, #205 ) ;
#240 = ADVANCED_FACE ( 'NONE', ( #388, #91 ), #224, .F. ) ;
#241 = AXIS2_PLACEMENT_3D ( 'NONE', #381, #332, #30 ) ;
#242 = FACE_OUTER_BOUND ( 'NONE', #170, .T. ) ;
#243 = VECTOR ( 'NONE', #1, 1000.000000000000000 ) ;
#244 = DIRECTION ( 'NONE',  ( -0.000000000000000000, 0.000000000000000000, 1.000000000000000000 ) ) ;
#245 = ADVANCED_BREP_SHAPE_REPRESENTATION ( 'Bauteil_E', ( #159, #317 ), #10 ) ;
#246 = CARTESIAN_POINT ( 'NONE',  ( 0.000000000000000000, 0.000000000000000000, 22.00000000000000000 ) ) ;
#247 = DESIGN_CONTEXT ( 'detailed design', #345, 'design' ) ;
#248 = EDGE_LOOP ( 'NONE', ( #153, #416, #225, #17 ) ) ;
#249 = DIRECTION ( 'NONE',  ( 1.000000000000000000, 0.000000000000000000, 0.000000000000000000 ) ) ;
#250 = CIRCLE ( 'NONE', #108, 22.00000000000000000 ) ;
#251 = ORIENTED_EDGE ( 'NONE', *, *, #82, .F. ) ;
#252 = DIRECTION ( 'NONE',  ( 0.000000000000000000, 1.000000000000000000, -1.224646799147353207E-16 ) ) ;
#253 = ORIENTED_EDGE ( 'NONE', *, *, #395, .F. ) ;
#254 = DIRECTION ( 'NONE',  ( 0.000000000000000000, 0.000000000000000000, 1.000000000000000000 ) ) ;
#255 = ADVANCED_FACE ( 'NONE', ( #57 ), #289, .F. ) ;
#256 = CARTESIAN_POINT ( 'NONE',  ( 0.000000000000000000, 0.000000000000000000, 0.000000000000000000 ) ) ;
#257 = CARTESIAN_POINT ( 'NONE',  ( 0.000000000000000000, 3.367778697655221307E-15, -27.50000000000000000 ) ) ;
#258 = ORIENTED_EDGE ( 'NONE', *, *, #191, .F. ) ;
#259 = DATE_AND_TIME ( #56, #210 ) ;
#260 = DIRECTION ( 'NONE',  ( 1.000000000000000000, 0.000000000000000000, 0.000000000000000000 ) ) ;
#261 = CARTESIAN_POINT ( 'NONE',  ( 32.00000000000000000, 2.449293598294706513E-15, -20.00000000000000000 ) ) ;
#262 = PERSON_AND_ORGANIZATION ( #304, #31 ) ;
#263 = CARTESIAN_POINT ( 'NONE',  ( 5.000000000000000888, 2.694222958124176809E-15, -22.00000000000000000 ) ) ;
#264 = CYLINDRICAL_SURFACE ( 'NONE', #290, 27.50000000000000000 ) ;
#265 = VERTEX_POINT ( 'NONE', #307 ) ;
#266 = AXIS2_PLACEMENT_3D ( 'NONE', #203, #95, #354 ) ;
#267 = CALENDAR_DATE ( 2024, 19, 8 ) ;
#268 = FACE_OUTER_BOUND ( 'NONE', #412, .T. ) ;
#269 = CARTESIAN_POINT ( 'NONE',  ( 0.000000000000000000, 2.449293598294706119E-15, -19.99999999999999645 ) ) ;
#270 = CIRCLE ( 'NONE', #325, 4.000000000000000000 ) ;
#271 = CYLINDRICAL_SURFACE ( 'NONE', #190, 22.00000000000000000 ) ;
#272 = EDGE_CURVE ( 'NONE', #139, #220, #411, .T. ) ;
#273 = CARTESIAN_POINT ( 'NONE',  ( 3.000000000000000888, 0.000000000000000000, 24.00000000000000000 ) ) ;
#274 = TOROIDAL_SURFACE ( 'NONE', #121, 24.00000000000000000, 2.000000000000000000 ) ;
#275 = CARTESIAN_POINT ( 'NONE',  ( 0.000000000000000000, 2.939152317953647500E-15, 23.99999999999999645 ) ) ;
#276 = FACE_OUTER_BOUND ( 'NONE', #363, .T. ) ;
#277 = ORIENTED_EDGE ( 'NONE', *, *, #29, .T. ) ;
#278 = CIRCLE ( 'NONE', #218, 22.00000000000000000 ) ;
#279 = APPROVAL_PERSON_ORGANIZATION ( #193, #2, #417 ) ;
#280 = ORIENTED_EDGE ( 'NONE', *, *, #390, .F. ) ;
#281 = CIRCLE ( 'NONE', #41, 24.00000000000000000 ) ;
#282 = CARTESIAN_POINT ( 'NONE',  ( 32.00000000000000000, 0.000000000000000000, 0.000000000000000000 ) ) ;
#283 = ORIENTED_EDGE ( 'NONE', *, *, #272, .T. ) ;
#284 = EDGE_CURVE ( 'NONE', #220, #139, #230, .T. ) ;
#285 = ORIENTED_EDGE ( 'NONE', *, *, #176, .F. ) ;
#286 = ORIENTED_EDGE ( 'NONE', *, *, #111, .T. ) ;
#287 = DIRECTION ( 'NONE',  ( -1.000000000000000000, -0.000000000000000000, -0.000000000000000000 ) ) ;
#288 = EDGE_LOOP ( 'NONE', ( #318, #195, #229, #132 ) ) ;
#289 = CYLINDRICAL_SURFACE ( 'NONE', #377, 19.99999999999999645 ) ;
#290 = AXIS2_PLACEMENT_3D ( 'NONE', #397, #234, #66 ) ;
#291 = EDGE_CURVE ( 'NONE', #326, #403, #281, .T. ) ;
#292 = ORIENTED_EDGE ( 'NONE', *, *, #38, .T. ) ;
#293 = SECURITY_CLASSIFICATION_LEVEL ( 'unclassified' ) ;
#294 = CARTESIAN_POINT ( 'NONE',  ( 0.000000000000000000, 0.000000000000000000, 0.000000000000000000 ) ) ;
#295 = AXIS2_PLACEMENT_3D ( 'NONE', #76, #310, #71 ) ;
#296 = ORIENTED_EDGE ( 'NONE', *, *, #216, .F. ) ;
#297 = ORIENTED_EDGE ( 'NONE', *, *, #217, .F. ) ;
#298 = CALENDAR_DATE ( 2024, 19, 8 ) ;
#299 = CARTESIAN_POINT ( 'NONE',  ( 0.000000000000000000, 0.000000000000000000, 0.000000000000000000 ) ) ;
#300 = COORDINATED_UNIVERSAL_TIME_OFFSET ( 1, 0, .AHEAD. ) ;
#301 = CARTESIAN_POINT ( 'NONE',  ( 0.000000000000000000, 0.000000000000000000, 27.50000000000000000 ) ) ;
#302 = DIRECTION ( 'NONE',  ( 0.000000000000000000, 0.000000000000000000, 1.000000000000000000 ) ) ;
#303 = CC_DESIGN_PERSON_AND_ORGANIZATION_ASSIGNMENT ( #141, #98, ( #370 ) ) ;
#304 = PERSON ( 'UNSPECIFIED', 'UNSPECIFIED', 'UNSPECIFIED', ('UNSPECIFIED'), ('UNSPECIFIED'), ('UNSPECIFIED') ) ;
#305 = VERTEX_POINT ( 'NONE', #344 ) ;
#306 = DIRECTION ( 'NONE',  ( -1.000000000000000000, -0.000000000000000000, -0.000000000000000000 ) ) ;
#307 = CARTESIAN_POINT ( 'NONE',  ( 32.00000000000000000, 0.000000000000000000, 22.00000000000000000 ) ) ;
#308 = TOROIDAL_SURFACE ( 'NONE', #150, 23.99999999999999645, 4.000000000000000000 ) ;
#309 = CC_DESIGN_PERSON_AND_ORGANIZATION_ASSIGNMENT ( #116, #9, ( #158 ) ) ;
#310 = DIRECTION ( 'NONE',  ( 1.000000000000000000, 0.000000000000000000, 0.000000000000000000 ) ) ;
#311 = PLANE ( 'NONE',  #92 ) ;
#312 = ORIENTED_EDGE ( 'NONE', *, *, #61, .T. ) ;
#313 = VERTEX_POINT ( 'NONE', #109 ) ;
#314 = APPROVAL_PERSON_ORGANIZATION ( #231, #223, #235 ) ;
#315 = AXIS2_PLACEMENT_3D ( 'NONE', #256, #125, #420 ) ;
#316 = EDGE_CURVE ( 'NONE', #313, #96, #3, .T. ) ;
#317 = AXIS2_PLACEMENT_3D ( 'NONE', #414, #187, #249 ) ;
#318 = ORIENTED_EDGE ( 'NONE', *, *, #156, .F. ) ;
#319 = CIRCLE ( 'NONE', #144, 2.000000000000001776 ) ;
#320 = ORIENTED_EDGE ( 'NONE', *, *, #43, .T. ) ;
#321 = EDGE_CURVE ( 'NONE', #126, #265, #250, .T. ) ;
#322 = ORIENTED_EDGE ( 'NONE', *, *, #402, .T. ) ;
#323 = ORIENTED_EDGE ( 'NONE', *, *, #7, .F. ) ;
#324 = ORIENTED_EDGE ( 'NONE', *, *, #156, .T. ) ;
#325 = AXIS2_PLACEMENT_3D ( 'NONE', #21, #252, #88 ) ;
#326 = VERTEX_POINT ( 'NONE', #69 ) ;
#327 = ORIENTED_EDGE ( 'NONE', *, *, #375, .F. ) ;
#328 = APPROVAL_DATE_TIME ( #94, #337 ) ;
#329 = LINE ( 'NONE', #138, #119 ) ;
#330 = CARTESIAN_POINT ( 'NONE',  ( 5.000000000000000888, 0.000000000000000000, 24.00000000000000000 ) ) ;
#331 = CARTESIAN_POINT ( 'NONE',  ( 0.000000000000000000, 0.000000000000000000, 0.000000000000000000 ) ) ;
#332 = DIRECTION ( 'NONE',  ( -1.000000000000000000, -0.000000000000000000, -0.000000000000000000 ) ) ;
#333 = APPROVAL_DATE_TIME ( #137, #2 ) ;
#334 = FACE_OUTER_BOUND ( 'NONE', #67, .T. ) ;
#335 = PERSON_AND_ORGANIZATION ( #304, #31 ) ;
#336 = DIRECTION ( 'NONE',  ( 1.000000000000000000, 0.000000000000000000, 0.000000000000000000 ) ) ;
#337 = APPROVAL ( #360, 'UNSPECIFIED' ) ;
#338 = CARTESIAN_POINT ( 'NONE',  ( 0.000000000000000000, 0.000000000000000000, 0.000000000000000000 ) ) ;
#339 = LINE ( 'NONE', #246, #407 ) ;
#340 = CIRCLE ( 'NONE', #83, 19.99999999999999645 ) ;
#341 = CARTESIAN_POINT ( 'NONE',  ( 4.000000000000000000, 0.000000000000000000, 0.000000000000000000 ) ) ;
#342 = DIRECTION ( 'NONE',  ( -1.000000000000000000, -0.000000000000000000, -0.000000000000000000 ) ) ;
#343 = AXIS2_PLACEMENT_3D ( 'NONE', #179, #405, #152 ) ;
#344 = CARTESIAN_POINT ( 'NONE',  ( 4.000000000000000000, 2.449293598294706119E-15, -19.99999999999999645 ) ) ;
#345 = APPLICATION_CONTEXT ( 'configuration controlled 3d designs of mechanical parts and assemblies' ) ;
#346 = EDGE_LOOP ( 'NONE', ( #81, #324, #6, #136 ) ) ;
#347 = EDGE_CURVE ( 'NONE', #378, #54, #37, .T. ) ;
#348 = VECTOR ( 'NONE', #78, 1000.000000000000000 ) ;
#349 = MECHANICAL_CONTEXT ( 'NONE', #13, 'mechanical' ) ;
#350 = DIRECTION ( 'NONE',  ( 0.000000000000000000, 0.000000000000000000, 1.000000000000000000 ) ) ;
#351 = ORIENTED_EDGE ( 'NONE', *, *, #7, .T. ) ;
#352 = ORIENTED_EDGE ( 'NONE', *, *, #111, .F. ) ;
#353 = ORIENTED_EDGE ( 'NONE', *, *, #120, .T. ) ;
#354 = DIRECTION ( 'NONE',  ( -0.000000000000000000, 0.000000000000000000, 1.000000000000000000 ) ) ;
#355 = FACE_OUTER_BOUND ( 'NONE', #154, .T. ) ;
#356 = ORIENTED_EDGE ( 'NONE', *, *, #216, .T. ) ;
#357 = CALENDAR_DATE ( 2024, 19, 8 ) ;
#358 = DIRECTION ( 'NONE',  ( 0.000000000000000000, 0.000000000000000000, 1.000000000000000000 ) ) ;
#359 = CIRCLE ( 'NONE', #12, 4.000000000000000000 ) ;
#360 = APPROVAL_STATUS ( 'not_yet_approved' ) ;
#361 = DIRECTION ( 'NONE',  ( 0.000000000000000000, 0.000000000000000000, 1.000000000000000000 ) ) ;
#362 = DIRECTION ( 'NONE',  ( -1.000000000000000000, -0.000000000000000000, -0.000000000000000000 ) ) ;
#363 = EDGE_LOOP ( 'NONE', ( #130, #226 ) ) ;
#364 = PERSON_AND_ORGANIZATION_ROLE ( 'design_supplier' ) ;
#365 = CYLINDRICAL_SURFACE ( 'NONE', #181, 19.99999999999999645 ) ;
#366 = EDGE_CURVE ( 'NONE', #265, #313, #339, .T. ) ;
#367 = PERSON_AND_ORGANIZATION ( #304, #31 ) ;
#368 = CARTESIAN_POINT ( 'NONE',  ( 32.00000000000000000, 22.00000000000000000, 0.000000000000000000 ) ) ;
#369 = DIRECTION ( 'NONE',  ( 0.000000000000000000, 0.000000000000000000, 1.000000000000000000 ) ) ;
#370 = SECURITY_CLASSIFICATION ( '', '', #293 ) ;
#371 = CIRCLE ( 'NONE', #241, 19.99999999999999645 ) ;
#372 = PLANE ( 'NONE',  #373 ) ;
#373 = AXIS2_PLACEMENT_3D ( 'NONE', #4, #42, #74 ) ;
#374 = DIRECTION ( 'NONE',  ( -1.000000000000000000, -0.000000000000000000, -0.000000000000000000 ) ) ;
#375 = EDGE_CURVE ( 'NONE', #403, #326, #391, .T. ) ;
#376 = AXIS2_PLACEMENT_3D ( 'NONE', #201, #393, #166 ) ;
#377 = AXIS2_PLACEMENT_3D ( 'NONE', #422, #392, #172 ) ;
#378 = VERTEX_POINT ( 'NONE', #214 ) ;
#379 =( NAMED_UNIT ( * ) SI_UNIT ( $, .STERADIAN. ) SOLID_ANGLE_UNIT ( ) );
#380 = ADVANCED_FACE ( 'NONE', ( #151, #242 ), #372, .F. ) ;
#381 = CARTESIAN_POINT ( 'NONE',  ( 4.000000000000000000, 0.000000000000000000, 0.000000000000000000 ) ) ;
#382 = APPROVAL_STATUS ( 'not_yet_approved' ) ;
#383 = FACE_OUTER_BOUND ( 'NONE', #63, .T. ) ;
#384 = CARTESIAN_POINT ( 'NONE',  ( 4.000000000000000000, 0.000000000000000000, -23.99999999999999645 ) ) ;
#385 = CYLINDRICAL_SURFACE ( 'NONE', #28, 27.50000000000000000 ) ;
#386 = VERTEX_POINT ( 'NONE', #275 ) ;
#387 = CC_DESIGN_SECURITY_CLASSIFICATION ( #370, ( #188 ) ) ;
#388 = FACE_BOUND ( 'NONE', #423, .T. ) ;
#389 = ORIENTED_EDGE ( 'NONE', *, *, #120, .F. ) ;
#390 = EDGE_CURVE ( 'NONE', #305, #54, #340, .T. ) ;
#391 = CIRCLE ( 'NONE', #48, 24.00000000000000000 ) ;
#392 = DIRECTION ( 'NONE',  ( -1.000000000000000000, -0.000000000000000000, -0.000000000000000000 ) ) ;
#393 = DIRECTION ( 'NONE',  ( -1.000000000000000000, -0.000000000000000000, -0.000000000000000000 ) ) ;
#394 = COORDINATED_UNIVERSAL_TIME_OFFSET ( 1, 0, .AHEAD. ) ;
#395 = EDGE_CURVE ( 'NONE', #11, #305, #238, .T. ) ;
#396 = DIRECTION ( 'NONE',  ( -1.000000000000000000, -0.000000000000000000, -0.000000000000000000 ) ) ;
#397 = CARTESIAN_POINT ( 'NONE',  ( 0.000000000000000000, 0.000000000000000000, 0.000000000000000000 ) ) ;
#398 = AXIS2_PLACEMENT_3D ( 'NONE', #432, #68, #361 ) ;
#399 = ORIENTED_EDGE ( 'NONE', *, *, #291, .T. ) ;
#400 = CALENDAR_DATE ( 2024, 19, 8 ) ;
#401 = DIRECTION ( 'NONE',  ( -1.000000000000000000, -0.000000000000000000, -0.000000000000000000 ) ) ;
#402 = EDGE_CURVE ( 'NONE', #90, #93, #135, .T. ) ;
#403 = VERTEX_POINT ( 'NONE', #273 ) ;
#404 = CARTESIAN_POINT ( 'NONE',  ( 0.000000000000000000, 0.000000000000000000, 19.99999999999999645 ) ) ;
#405 = DIRECTION ( 'NONE',  ( -1.000000000000000000, -0.000000000000000000, -0.000000000000000000 ) ) ;
#406 = FACE_OUTER_BOUND ( 'NONE', #58, .T. ) ;
#407 = VECTOR ( 'NONE', #237, 1000.000000000000000 ) ;
#408 = DIRECTION ( 'NONE',  ( -1.000000000000000000, -0.000000000000000000, -0.000000000000000000 ) ) ;
#409 = ADVANCED_FACE ( 'NONE', ( #406 ), #110, .T. ) ;
#410 = CC_DESIGN_APPROVAL ( #2, ( #430 ) ) ;
#411 = CIRCLE ( 'NONE', #343, 27.50000000000000000 ) ;
#412 = EDGE_LOOP ( 'NONE', ( #323, #280, #356, #389 ) ) ;
#413 = ORIENTED_EDGE ( 'NONE', *, *, #395, .T. ) ;
#414 = CARTESIAN_POINT ( 'NONE',  ( 0.000000000000000000, 0.000000000000000000, 0.000000000000000000 ) ) ;
#415 = ORIENTED_EDGE ( 'NONE', *, *, #402, .F. ) ;
#416 = ORIENTED_EDGE ( 'NONE', *, *, #176, .T. ) ;
#417 = APPROVAL_ROLE ( '' ) ;
#418 = CARTESIAN_POINT ( 'NONE',  ( 4.000000000000000000, 0.000000000000000000, 0.000000000000000000 ) ) ;
#419 = ADVANCED_FACE ( 'NONE', ( #276, #145 ), #311, .F. ) ;
#420 = DIRECTION ( 'NONE',  ( 0.000000000000000000, 0.000000000000000000, -1.000000000000000000 ) ) ;
#421 = LOCAL_TIME ( 15, 53, 31.00000000000000000, #300 ) ;
#422 = CARTESIAN_POINT ( 'NONE',  ( 0.000000000000000000, 0.000000000000000000, 0.000000000000000000 ) ) ;
#423 = EDGE_LOOP ( 'NONE', ( #157, #399 ) ) ;
#424 = ADVANCED_FACE ( 'NONE', ( #5 ), #271, .T. ) ;
#425 = LOCAL_TIME ( 15, 53, 31.00000000000000000, #394 ) ;
#426 = ORIENTED_EDGE ( 'NONE', *, *, #38, .F. ) ;
#427 = APPROVAL_ROLE ( '' ) ;
#428 = DIRECTION ( 'NONE',  ( 0.000000000000000000, 0.000000000000000000, -1.000000000000000000 ) ) ;
#429 = EDGE_LOOP ( 'NONE', ( #114, #312 ) ) ;
#430 = PRODUCT_DEFINITION ( 'UNKNOWN', '', #188, #247 ) ;
#431 = DIRECTION ( 'NONE',  ( -1.000000000000000000, -0.000000000000000000, -0.000000000000000000 ) ) ;
#432 = CARTESIAN_POINT ( 'NONE',  ( 5.000000000000000888, 0.000000000000000000, 0.000000000000000000 ) ) ;
#433 = DIRECTION ( 'NONE',  ( -1.000000000000000000, -0.000000000000000000, -0.000000000000000000 ) ) ;
ENDSEC;
END-ISO-10303-21;
