ISO-10303-21;
HEADER;
FILE_DESCRIPTION (( 'STEP AP203' ),
    '1' );
FILE_NAME ('Bauteil_G.STEP',
    '2024-08-19T13:54:05',
    ( '' ),
    ( '' ),
    'SwSTEP 2.0',
    'SolidWorks 2023',
    '' );
FILE_SCHEMA (( 'CONFIG_CONTROL_DESIGN' ));
ENDSEC;

DATA;
#1 = CARTESIAN_POINT ( 'NONE',  ( 0.000000000000000000, 0.000000000000000000, 22.00000000000000711 ) ) ;
#2 = DIRECTION ( 'NONE',  ( 0.000000000000000000, -1.000000000000000000, 0.000000000000000000 ) ) ;
#3 = EDGE_CURVE ( 'NONE', #105, #154, #96, .T. ) ;
#4 = CARTESIAN_POINT ( 'NONE',  ( 0.000000000000000000, 0.000000000000000000, 0.000000000000000000 ) ) ;
#5 =( LENGTH_UNIT ( ) NAMED_UNIT ( * ) SI_UNIT ( .MILLI., .METRE. ) );
#6 = PERSON_AND_ORGANIZATION ( #16, #39 ) ;
#7 = UNCERTAINTY_MEASURE_WITH_UNIT (LENGTH_MEASURE( 1.000000000000000082E-05 ), #5, 'distance_accuracy_value', 'NONE');
#8 = PERSON_AND_ORGANIZATION_ROLE ( 'design_supplier' ) ;
#9 =( GEOMETRIC_REPRESENTATION_CONTEXT ( 3 ) GLOBAL_UNCERTAINTY_ASSIGNED_CONTEXT ( ( #7 ) ) GLOBAL_UNIT_ASSIGNED_CONTEXT ( ( #5, #189, #57 ) ) REPRESENTATION_CONTEXT ( 'NONE', 'WORKASPACE' ) );
#10 = CALENDAR_DATE ( 2024, 19, 8 ) ;
#11 = AXIS2_PLACEMENT_3D ( 'NONE', #94, #152, #65 ) ;
#12 = EDGE_CURVE ( 'NONE', #154, #191, #68, .T. ) ;
#13 = SHAPE_DEFINITION_REPRESENTATION ( #49, #183 ) ;
#14 = AXIS2_PLACEMENT_3D ( 'NONE', #4, #70, #125 ) ;
#15 = PRODUCT_DEFINITION_FORMATION_WITH_SPECIFIED_SOURCE ( 'ANY', '', #77, .NOT_KNOWN. ) ;
#16 = PERSON ( 'UNSPECIFIED', 'UNSPECIFIED', 'UNSPECIFIED', ('UNSPECIFIED'), ('UNSPECIFIED'), ('UNSPECIFIED') ) ;
#17 = DIRECTION ( 'NONE',  ( 0.000000000000000000, 0.000000000000000000, 1.000000000000000000 ) ) ;
#18 = TOROIDAL_SURFACE ( 'NONE', #29, 20.00000000000000355, 2.000000000000000444 ) ;
#19 = DIRECTION ( 'NONE',  ( 0.000000000000000000, 0.000000000000000000, 1.000000000000000000 ) ) ;
#20 = CARTESIAN_POINT ( 'NONE',  ( 0.000000000000000000, 2.449293598294706907E-15, -20.00000000000000355 ) ) ;
#21 = PRODUCT_DEFINITION ( 'UNKNOWN', '', #15, #157 ) ;
#22 = DIRECTION ( 'NONE',  ( 0.000000000000000000, -1.000000000000000000, 0.000000000000000000 ) ) ;
#23 = PERSON_AND_ORGANIZATION ( #16, #39 ) ;
#24 = CALENDAR_DATE ( 2024, 19, 8 ) ;
#25 = COORDINATED_UNIVERSAL_TIME_OFFSET ( 1, 0, .AHEAD. ) ;
#26 = APPROVAL_STATUS ( 'not_yet_approved' ) ;
#27 = APPLICATION_PROTOCOL_DEFINITION ( 'international standard', 'config_control_design', 1994, #54 ) ;
#28 = EDGE_CURVE ( 'NONE', #191, #97, #41, .T. ) ;
#29 = AXIS2_PLACEMENT_3D ( 'NONE', #74, #46, #132 ) ;
#30 = EDGE_CURVE ( 'NONE', #97, #105, #76, .T. ) ;
#31 = TOROIDAL_SURFACE ( 'NONE', #140, 20.00000000000000355, 2.000000000000000444 ) ;
#32 = CC_DESIGN_APPROVAL ( #34, ( #21 ) ) ;
#33 = EDGE_LOOP ( 'NONE', ( #164, #82, #48, #153 ) ) ;
#34 = APPROVAL ( #26, 'UNSPECIFIED' ) ;
#35 = FACE_OUTER_BOUND ( 'NONE', #33, .T. ) ;
#36 = DIRECTION ( 'NONE',  ( -0.000000000000000000, 1.000000000000000000, 1.224646799147353207E-16 ) ) ;
#37 = DIRECTION ( 'NONE',  ( -1.000000000000000000, -0.000000000000000000, -0.000000000000000000 ) ) ;
#38 = ORIENTED_EDGE ( 'NONE', *, *, #12, .T. ) ;
#39 = ORGANIZATION ( 'UNSPECIFIED', 'UNSPECIFIED', '' ) ;
#40 = FACE_OUTER_BOUND ( 'NONE', #55, .T. ) ;
#41 = CIRCLE ( 'NONE', #155, 2.000000000000001776 ) ;
#42 = EDGE_CURVE ( 'NONE', #105, #97, #176, .T. ) ;
#43 = PERSON_AND_ORGANIZATION ( #16, #39 ) ;
#44 = PERSON_AND_ORGANIZATION ( #16, #39 ) ;
#45 = DATE_AND_TIME ( #160, #177 ) ;
#46 = DIRECTION ( 'NONE',  ( -1.000000000000000000, -0.000000000000000000, -0.000000000000000000 ) ) ;
#47 = CC_DESIGN_PERSON_AND_ORGANIZATION_ASSIGNMENT ( #59, #8, ( #15 ) ) ;
#48 = ORIENTED_EDGE ( 'NONE', *, *, #135, .T. ) ;
#49 = PRODUCT_DEFINITION_SHAPE ( 'NONE', 'NONE',  #21 ) ;
#50 = CC_DESIGN_PERSON_AND_ORGANIZATION_ASSIGNMENT ( #126, #158, ( #15 ) ) ;
#51 = CIRCLE ( 'NONE', #151, 18.00000000000000355 ) ;
#52 = LOCAL_TIME ( 15, 54, 5.000000000000000000, #101 ) ;
#53 = DIRECTION ( 'NONE',  ( 0.000000000000000000, 0.000000000000000000, 1.000000000000000000 ) ) ;
#54 = APPLICATION_CONTEXT ( 'configuration controlled 3d designs of mechanical parts and assemblies' ) ;
#55 = EDGE_LOOP ( 'NONE', ( #162, #134, #92, #165 ) ) ;
#56 = CARTESIAN_POINT ( 'NONE',  ( 0.000000000000000000, 2.204364238465236217E-15, -18.00000000000000355 ) ) ;
#57 =( NAMED_UNIT ( * ) SI_UNIT ( $, .STERADIAN. ) SOLID_ANGLE_UNIT ( ) );
#58 = PERSON_AND_ORGANIZATION_ROLE ( 'design_owner' ) ;
#59 = PERSON_AND_ORGANIZATION ( #16, #39 ) ;
#60 = CC_DESIGN_PERSON_AND_ORGANIZATION_ASSIGNMENT ( #43, #99, ( #192 ) ) ;
#61 = CARTESIAN_POINT ( 'NONE',  ( 0.000000000000000000, 0.000000000000000000, 0.000000000000000000 ) ) ;
#62 = ORIENTED_EDGE ( 'NONE', *, *, #115, .T. ) ;
#63 = APPROVAL ( #188, 'UNSPECIFIED' ) ;
#64 = EDGE_LOOP ( 'NONE', ( #137, #66, #62, #122 ) ) ;
#65 = DIRECTION ( 'NONE',  ( 0.000000000000000000, 0.000000000000000000, 1.000000000000000000 ) ) ;
#66 = ORIENTED_EDGE ( 'NONE', *, *, #28, .F. ) ;
#67 = EDGE_LOOP ( 'NONE', ( #120, #107, #38, #108 ) ) ;
#68 = CIRCLE ( 'NONE', #11, 18.00000000000000355 ) ;
#69 = DIRECTION ( 'NONE',  ( 0.000000000000000000, 0.000000000000000000, 1.000000000000000000 ) ) ;
#70 = DIRECTION ( 'NONE',  ( -1.000000000000000000, -0.000000000000000000, -0.000000000000000000 ) ) ;
#71 = AXIS2_PLACEMENT_3D ( 'NONE', #166, #22, #83 ) ;
#72 = LOCAL_TIME ( 15, 54, 5.000000000000000000, #156 ) ;
#73 = CALENDAR_DATE ( 2024, 19, 8 ) ;
#74 = CARTESIAN_POINT ( 'NONE',  ( 0.000000000000000000, 0.000000000000000000, 0.000000000000000000 ) ) ;
#75 = PERSON_AND_ORGANIZATION ( #16, #39 ) ;
#76 = CIRCLE ( 'NONE', #171, 22.00000000000000711 ) ;
#77 = PRODUCT ( 'Bauteil_G', 'Bauteil_G', '', ( #113 ) ) ;
#78 = AXIS2_PLACEMENT_3D ( 'NONE', #163, #110, #167 ) ;
#79 = APPROVAL_PERSON_ORGANIZATION ( #23, #117, #104 ) ;
#80 = DIRECTION ( 'NONE',  ( 0.000000000000000000, 0.000000000000000000, -1.000000000000000000 ) ) ;
#81 = CARTESIAN_POINT ( 'NONE',  ( 0.000000000000000000, 0.000000000000000000, 0.000000000000000000 ) ) ;
#82 = ORIENTED_EDGE ( 'NONE', *, *, #42, .T. ) ;
#83 = DIRECTION ( 'NONE',  ( 0.000000000000000000, 0.000000000000000000, -1.000000000000000000 ) ) ;
#84 = CC_DESIGN_DATE_AND_TIME_ASSIGNMENT ( #142, #168, ( #21 ) ) ;
#85 = DATE_AND_TIME ( #73, #52 ) ;
#86 = DATE_AND_TIME ( #24, #72 ) ;
#87 = APPROVAL_ROLE ( '' ) ;
#88 = CC_DESIGN_APPROVAL ( #117, ( #15 ) ) ;
#89 = AXIS2_PLACEMENT_3D ( 'NONE', #180, #95, #53 ) ;
#90 = APPROVAL_PERSON_ORGANIZATION ( #6, #63, #87 ) ;
#91 = ADVANCED_FACE ( 'NONE', ( #139 ), #31, .T. ) ;
#92 = ORIENTED_EDGE ( 'NONE', *, *, #3, .T. ) ;
#93 = DIRECTION ( 'NONE',  ( -1.000000000000000000, -0.000000000000000000, -0.000000000000000000 ) ) ;
#94 = CARTESIAN_POINT ( 'NONE',  ( 2.449293598294706907E-16, 0.000000000000000000, 0.000000000000000000 ) ) ;
#95 = DIRECTION ( 'NONE',  ( -1.000000000000000000, -0.000000000000000000, -0.000000000000000000 ) ) ;
#96 = CIRCLE ( 'NONE', #148, 2.000000000000001776 ) ;
#97 = VERTEX_POINT ( 'NONE', #1 ) ;
#98 = CC_DESIGN_APPROVAL ( #63, ( #192 ) ) ;
#99 = PERSON_AND_ORGANIZATION_ROLE ( 'classification_officer' ) ;
#100 = CC_DESIGN_DATE_AND_TIME_ASSIGNMENT ( #86, #141, ( #192 ) ) ;
#101 = COORDINATED_UNIVERSAL_TIME_OFFSET ( 1, 0, .AHEAD. ) ;
#102 = TOROIDAL_SURFACE ( 'NONE', #14, 20.00000000000000355, 2.000000000000000444 ) ;
#103 = APPLICATION_PROTOCOL_DEFINITION ( 'international standard', 'config_control_design', 1994, #121 ) ;
#104 = APPROVAL_ROLE ( '' ) ;
#105 = VERTEX_POINT ( 'NONE', #184 ) ;
#106 = CC_DESIGN_PERSON_AND_ORGANIZATION_ASSIGNMENT ( #75, #145, ( #21 ) ) ;
#107 = ORIENTED_EDGE ( 'NONE', *, *, #133, .F. ) ;
#108 = ORIENTED_EDGE ( 'NONE', *, *, #28, .T. ) ;
#109 = CARTESIAN_POINT ( 'NONE',  ( 0.000000000000000000, 0.000000000000000000, 20.00000000000000355 ) ) ;
#110 = DIRECTION ( 'NONE',  ( -0.000000000000000000, 1.000000000000000000, 1.224646799147353207E-16 ) ) ;
#111 = DIRECTION ( 'NONE',  ( -1.000000000000000000, -0.000000000000000000, -0.000000000000000000 ) ) ;
#112 = APPROVAL_STATUS ( 'not_yet_approved' ) ;
#113 = MECHANICAL_CONTEXT ( 'NONE', #54, 'mechanical' ) ;
#114 = DIRECTION ( 'NONE',  ( 1.000000000000000000, 0.000000000000000000, 0.000000000000000000 ) ) ;
#115 = EDGE_CURVE ( 'NONE', #191, #154, #51, .T. ) ;
#116 = CIRCLE ( 'NONE', #71, 2.000000000000001776 ) ;
#117 = APPROVAL ( #112, 'UNSPECIFIED' ) ;
#118 = APPROVAL_DATE_TIME ( #161, #63 ) ;
#119 = CARTESIAN_POINT ( 'NONE',  ( 2.449293598294706907E-16, 0.000000000000000000, 0.000000000000000000 ) ) ;
#120 = ORIENTED_EDGE ( 'NONE', *, *, #42, .F. ) ;
#121 = APPLICATION_CONTEXT ( 'configuration controlled 3d designs of mechanical parts and assemblies' ) ;
#122 = ORIENTED_EDGE ( 'NONE', *, *, #133, .T. ) ;
#123 = LOCAL_TIME ( 15, 54, 5.000000000000000000, #147 ) ;
#124 = CARTESIAN_POINT ( 'NONE',  ( 0.000000000000000000, 0.000000000000000000, 0.000000000000000000 ) ) ;
#125 = DIRECTION ( 'NONE',  ( 0.000000000000000000, 0.000000000000000000, 1.000000000000000000 ) ) ;
#126 = PERSON_AND_ORGANIZATION ( #16, #39 ) ;
#127 = CC_DESIGN_SECURITY_CLASSIFICATION ( #192, ( #15 ) ) ;
#128 = APPROVAL_DATE_TIME ( #85, #117 ) ;
#129 = APPROVAL_ROLE ( '' ) ;
#130 = AXIS2_PLACEMENT_3D ( 'NONE', #61, #172, #114 ) ;
#131 = CLOSED_SHELL ( 'NONE', ( #149, #144, #179, #91 ) ) ;
#132 = DIRECTION ( 'NONE',  ( 0.000000000000000000, 0.000000000000000000, 1.000000000000000000 ) ) ;
#133 = EDGE_CURVE ( 'NONE', #154, #105, #182, .T. ) ;
#134 = ORIENTED_EDGE ( 'NONE', *, *, #30, .T. ) ;
#135 = EDGE_CURVE ( 'NONE', #97, #191, #116, .T. ) ;
#136 = AXIS2_PLACEMENT_3D ( 'NONE', #150, #111, #17 ) ;
#137 = ORIENTED_EDGE ( 'NONE', *, *, #30, .F. ) ;
#138 = DIRECTION ( 'NONE',  ( -1.000000000000000000, -0.000000000000000000, -0.000000000000000000 ) ) ;
#139 = FACE_OUTER_BOUND ( 'NONE', #67, .T. ) ;
#140 = AXIS2_PLACEMENT_3D ( 'NONE', #124, #138, #19 ) ;
#141 = DATE_TIME_ROLE ( 'classification_date' ) ;
#142 = DATE_AND_TIME ( #10, #173 ) ;
#143 = APPROVAL_DATE_TIME ( #45, #34 ) ;
#144 = ADVANCED_FACE ( 'NONE', ( #40 ), #102, .T. ) ;
#145 = PERSON_AND_ORGANIZATION_ROLE ( 'creator' ) ;
#146 = APPROVAL_PERSON_ORGANIZATION ( #44, #34, #129 ) ;
#147 = COORDINATED_UNIVERSAL_TIME_OFFSET ( 1, 0, .AHEAD. ) ;
#148 = AXIS2_PLACEMENT_3D ( 'NONE', #20, #36, #181 ) ;
#149 = ADVANCED_FACE ( 'NONE', ( #35 ), #159, .T. ) ;
#150 = CARTESIAN_POINT ( 'NONE',  ( 0.000000000000000000, 0.000000000000000000, 0.000000000000000000 ) ) ;
#151 = AXIS2_PLACEMENT_3D ( 'NONE', #119, #37, #178 ) ;
#152 = DIRECTION ( 'NONE',  ( -1.000000000000000000, -0.000000000000000000, -0.000000000000000000 ) ) ;
#153 = ORIENTED_EDGE ( 'NONE', *, *, #12, .F. ) ;
#154 = VERTEX_POINT ( 'NONE', #56 ) ;
#155 = AXIS2_PLACEMENT_3D ( 'NONE', #109, #2, #80 ) ;
#156 = COORDINATED_UNIVERSAL_TIME_OFFSET ( 1, 0, .AHEAD. ) ;
#157 = DESIGN_CONTEXT ( 'detailed design', #121, 'design' ) ;
#158 = PERSON_AND_ORGANIZATION_ROLE ( 'creator' ) ;
#159 = TOROIDAL_SURFACE ( 'NONE', #136, 20.00000000000000355, 2.000000000000000444 ) ;
#160 = CALENDAR_DATE ( 2024, 19, 8 ) ;
#161 = DATE_AND_TIME ( #175, #123 ) ;
#162 = ORIENTED_EDGE ( 'NONE', *, *, #135, .F. ) ;
#163 = CARTESIAN_POINT ( 'NONE',  ( 0.000000000000000000, 2.449293598294706907E-15, -20.00000000000000355 ) ) ;
#164 = ORIENTED_EDGE ( 'NONE', *, *, #3, .F. ) ;
#165 = ORIENTED_EDGE ( 'NONE', *, *, #115, .F. ) ;
#166 = CARTESIAN_POINT ( 'NONE',  ( 0.000000000000000000, 0.000000000000000000, 20.00000000000000355 ) ) ;
#167 = DIRECTION ( 'NONE',  ( 0.000000000000000000, -1.224646799147351482E-16, 1.000000000000000000 ) ) ;
#168 = DATE_TIME_ROLE ( 'creation_date' ) ;
#169 = PERSON_AND_ORGANIZATION ( #16, #39 ) ;
#170 = CARTESIAN_POINT ( 'NONE',  ( 0.000000000000000000, 0.000000000000000000, 18.00000000000000355 ) ) ;
#171 = AXIS2_PLACEMENT_3D ( 'NONE', #81, #93, #69 ) ;
#172 = DIRECTION ( 'NONE',  ( 0.000000000000000000, 0.000000000000000000, 1.000000000000000000 ) ) ;
#173 = LOCAL_TIME ( 15, 54, 5.000000000000000000, #174 ) ;
#174 = COORDINATED_UNIVERSAL_TIME_OFFSET ( 1, 0, .AHEAD. ) ;
#175 = CALENDAR_DATE ( 2024, 19, 8 ) ;
#176 = CIRCLE ( 'NONE', #89, 22.00000000000000711 ) ;
#177 = LOCAL_TIME ( 15, 54, 5.000000000000000000, #25 ) ;
#178 = DIRECTION ( 'NONE',  ( 0.000000000000000000, 0.000000000000000000, 1.000000000000000000 ) ) ;
#179 = ADVANCED_FACE ( 'NONE', ( #193 ), #18, .T. ) ;
#180 = CARTESIAN_POINT ( 'NONE',  ( 0.000000000000000000, 0.000000000000000000, 0.000000000000000000 ) ) ;
#181 = DIRECTION ( 'NONE',  ( 0.000000000000000000, -1.224646799147351482E-16, 1.000000000000000000 ) ) ;
#182 = CIRCLE ( 'NONE', #78, 2.000000000000001776 ) ;
#183 = ADVANCED_BREP_SHAPE_REPRESENTATION ( 'Bauteil_G', ( #187, #130 ), #9 ) ;
#184 = CARTESIAN_POINT ( 'NONE',  ( 0.000000000000000000, 2.694222958124177204E-15, -22.00000000000000711 ) ) ;
#185 = CC_DESIGN_PERSON_AND_ORGANIZATION_ASSIGNMENT ( #169, #58, ( #77 ) ) ;
#186 = SECURITY_CLASSIFICATION_LEVEL ( 'unclassified' ) ;
#187 = MANIFOLD_SOLID_BREP ( 'Rotation1', #131 ) ;
#188 = APPROVAL_STATUS ( 'not_yet_approved' ) ;
#189 =( NAMED_UNIT ( * ) PLANE_ANGLE_UNIT ( ) SI_UNIT ( $, .RADIAN. ) );
#190 = PRODUCT_RELATED_PRODUCT_CATEGORY ( 'detail', '', ( #77 ) ) ;
#191 = VERTEX_POINT ( 'NONE', #170 ) ;
#192 = SECURITY_CLASSIFICATION ( '', '', #186 ) ;
#193 = FACE_OUTER_BOUND ( 'NONE', #64, .T. ) ;
ENDSEC;
END-ISO-10303-21;
