ISO-10303-21;
HEADER;
FILE_DESCRIPTION (( 'STEP AP203' ),
    '1' );
FILE_NAME ('Bauteil_H.STEP',
    '2024-08-20T07:13:46',
    ( '' ),
    ( '' ),
    'SwSTEP 2.0',
    'SolidWorks 2023',
    '' );
FILE_SCHEMA (( 'CONFIG_CONTROL_DESIGN' ));
ENDSEC;

DATA;
#1 = ORIENTED_EDGE ( 'NONE', *, *, #61, .F. ) ;
#2 = VECTOR ( 'NONE', #655, 1000.000000000000000 ) ;
#3 = DIRECTION ( 'NONE',  ( 0.000000000000000000, 0.000000000000000000, -1.000000000000000000 ) ) ;
#4 = PERSON_AND_ORGANIZATION ( #511, #693 ) ;
#5 = DIRECTION ( 'NONE',  ( 0.000000000000000000, 0.000000000000000000, 1.000000000000000000 ) ) ;
#6 = EDGE_CURVE ( 'NONE', #585, #57, #296, .T. ) ;
#7 = DIRECTION ( 'NONE',  ( 1.000000000000000000, 0.000000000000000000, 0.000000000000000000 ) ) ;
#8 = VECTOR ( 'NONE', #537, 1000.000000000000000 ) ;
#9 = ORIENTED_EDGE ( 'NONE', *, *, #462, .T. ) ;
#10 = DIRECTION ( 'NONE',  ( 0.000000000000000000, 0.000000000000000000, 1.000000000000000000 ) ) ;
#11 = ORIENTED_EDGE ( 'NONE', *, *, #349, .T. ) ;
#12 = CARTESIAN_POINT ( 'NONE',  ( 50.00000000000000000, 1.836909530733564941E-14, -50.00000000000000000 ) ) ;
#13 = ADVANCED_FACE ( 'NONE', ( #573 ), #347, .F. ) ;
#14 = ORIENTED_EDGE ( 'NONE', *, *, #447, .F. ) ;
#15 = EDGE_LOOP ( 'NONE', ( #350, #214 ) ) ;
#16 = CARTESIAN_POINT ( 'NONE',  ( 50.00000000000000000, 1.836909530733564941E-14, 50.00000000000000000 ) ) ;
#17 = DATE_AND_TIME ( #181, #420 ) ;
#18 = ORIENTED_EDGE ( 'NONE', *, *, #365, .T. ) ;
#19 = EDGE_CURVE ( 'NONE', #514, #530, #173, .T. ) ;
#20 = VECTOR ( 'NONE', #266, 1000.000000000000000 ) ;
#21 = DIRECTION ( 'NONE',  ( -1.000000000000000000, -1.836909530733564901E-16, 0.000000000000000000 ) ) ;
#22 = DIRECTION ( 'NONE',  ( 0.000000000000000000, 0.000000000000000000, -1.000000000000000000 ) ) ;
#23 = DIRECTION ( 'NONE',  ( 0.000000000000000000, 1.000000000000000000, 1.040834085586083887E-16 ) ) ;
#24 = CARTESIAN_POINT ( 'NONE',  ( 50.00000000000000000, 50.00000000000000000, -20.00000000000000000 ) ) ;
#25 = CARTESIAN_POINT ( 'NONE',  ( 20.00000000000000000, -100.0000000000000000, 50.00000000000000000 ) ) ;
#26 = EDGE_CURVE ( 'NONE', #211, #241, #177, .T. ) ;
#27 = CC_DESIGN_PERSON_AND_ORGANIZATION_ASSIGNMENT ( #123, #536, ( #524 ) ) ;
#28 = DIRECTION ( 'NONE',  ( 1.000000000000000000, 0.000000000000000000, 0.000000000000000000 ) ) ;
#29 = DIRECTION ( 'NONE',  ( 0.000000000000000000, 1.734723475976804876E-16, -1.000000000000000000 ) ) ;
#30 = DIRECTION ( 'NONE',  ( 1.000000000000000000, 0.000000000000000000, 0.000000000000000000 ) ) ;
#31 = ORIENTED_EDGE ( 'NONE', *, *, #385, .T. ) ;
#32 = VECTOR ( 'NONE', #22, 1000.000000000000000 ) ;
#33 = VECTOR ( 'NONE', #188, 1000.000000000000000 ) ;
#34 = CARTESIAN_POINT ( 'NONE',  ( 0.000000000000000000, 100.0000000000000000, -50.00000000000000000 ) ) ;
#35 = DIRECTION ( 'NONE',  ( 0.000000000000000000, 0.000000000000000000, 1.000000000000000000 ) ) ;
#36 = DIRECTION ( 'NONE',  ( 4.163336342344335054E-16, -1.000000000000000000, 0.000000000000000000 ) ) ;
#37 = ORIENTED_EDGE ( 'NONE', *, *, #26, .F. ) ;
#38 = LOCAL_TIME ( 9, 13, 46.00000000000000000, #615 ) ;
#39 = DIRECTION ( 'NONE',  ( -1.836909530733564901E-16, 1.000000000000000000, 0.000000000000000000 ) ) ;
#40 = EDGE_CURVE ( 'NONE', #617, #417, #714, .T. ) ;
#41 = CIRCLE ( 'NONE', #708, 25.00000000000000000 ) ;
#42 = DIRECTION ( 'NONE',  ( 1.000000000000000000, 0.000000000000000000, 0.000000000000000000 ) ) ;
#43 = PLANE ( 'NONE',  #131 ) ;
#44 = ORIENTED_EDGE ( 'NONE', *, *, #26, .T. ) ;
#45 = UNCERTAINTY_MEASURE_WITH_UNIT (LENGTH_MEASURE( 1.000000000000000082E-05 ), #279, 'distance_accuracy_value', 'NONE');
#46 = DIRECTION ( 'NONE',  ( 0.000000000000000000, -1.000000000000000000, -2.775557561562890365E-16 ) ) ;
#47 = CARTESIAN_POINT ( 'NONE',  ( -50.00000000000000000, 50.00000000000000000, 20.00000000000000000 ) ) ;
#48 = EDGE_LOOP ( 'NONE', ( #340, #686 ) ) ;
#49 = CC_DESIGN_DATE_AND_TIME_ASSIGNMENT ( #106, #227, ( #428 ) ) ;
#50 = CIRCLE ( 'NONE', #161, 24.99999999999999289 ) ;
#51 = DIRECTION ( 'NONE',  ( -1.000000000000000000, 0.000000000000000000, 0.000000000000000000 ) ) ;
#52 = ORIENTED_EDGE ( 'NONE', *, *, #689, .F. ) ;
#53 = DIRECTION ( 'NONE',  ( 0.000000000000000000, 0.000000000000000000, -1.000000000000000000 ) ) ;
#54 = VERTEX_POINT ( 'NONE', #367 ) ;
#55 = EDGE_CURVE ( 'NONE', #304, #634, #461, .T. ) ;
#56 = FACE_OUTER_BOUND ( 'NONE', #487, .T. ) ;
#57 = VERTEX_POINT ( 'NONE', #85 ) ;
#58 = AXIS2_PLACEMENT_3D ( 'NONE', #484, #648, #606 ) ;
#59 = DIRECTION ( 'NONE',  ( 0.000000000000000000, 0.000000000000000000, 1.000000000000000000 ) ) ;
#60 = EDGE_LOOP ( 'NONE', ( #414, #127, #433, #121 ) ) ;
#61 = EDGE_CURVE ( 'NONE', #600, #211, #50, .T. ) ;
#62 = APPROVAL_PERSON_ORGANIZATION ( #610, #399, #581 ) ;
#63 = ORIENTED_EDGE ( 'NONE', *, *, #109, .T. ) ;
#64 = CARTESIAN_POINT ( 'NONE',  ( 25.00000000000000000, 100.0000000000000000, -50.00000000000000000 ) ) ;
#65 = DIRECTION ( 'NONE',  ( 0.000000000000000000, 1.040834085586083887E-16, -1.000000000000000000 ) ) ;
#66 = ADVANCED_FACE ( 'NONE', ( #77 ), #372, .T. ) ;
#67 = CARTESIAN_POINT ( 'NONE',  ( -20.00000000000000000, 5.510728592200700029E-15, 50.00000000000000000 ) ) ;
#68 = VECTOR ( 'NONE', #90, 1000.000000000000000 ) ;
#69 = ORIENTED_EDGE ( 'NONE', *, *, #19, .F. ) ;
#70 = ADVANCED_FACE ( 'NONE', ( #423, #491 ), #209, .T. ) ;
#71 = CARTESIAN_POINT ( 'NONE',  ( 50.00000000000000000, 100.0000000000000000, -50.00000000000000000 ) ) ;
#72 = PERSON_AND_ORGANIZATION ( #511, #693 ) ;
#73 = ORIENTED_EDGE ( 'NONE', *, *, #235, .T. ) ;
#74 = DIRECTION ( 'NONE',  ( 0.000000000000000000, 0.000000000000000000, -1.000000000000000000 ) ) ;
#75 = ORIENTED_EDGE ( 'NONE', *, *, #94, .F. ) ;
#76 = DIRECTION ( 'NONE',  ( 1.000000000000000000, 1.836909530733564901E-16, 0.000000000000000000 ) ) ;
#77 = FACE_OUTER_BOUND ( 'NONE', #529, .T. ) ;
#78 = VECTOR ( 'NONE', #204, 1000.000000000000000 ) ;
#79 = AXIS2_PLACEMENT_3D ( 'NONE', #571, #5, #228 ) ;
#80 = DIRECTION ( 'NONE',  ( 1.000000000000000000, 0.000000000000000000, 0.000000000000000000 ) ) ;
#81 = CARTESIAN_POINT ( 'NONE',  ( -50.00000000000000000, 0.000000000000000000, 50.00000000000000000 ) ) ;
#82 = EDGE_CURVE ( 'NONE', #552, #197, #369, .T. ) ;
#83 = LINE ( 'NONE', #551, #673 ) ;
#84 = FACE_BOUND ( 'NONE', #669, .T. ) ;
#85 = CARTESIAN_POINT ( 'NONE',  ( 50.00000000000000000, 50.00000000000000000, 20.00000000000000000 ) ) ;
#86 = CARTESIAN_POINT ( 'NONE',  ( -20.00000000000000000, -100.0000000000000000, -1.387778780781445991E-14 ) ) ;
#87 = ORIENTED_EDGE ( 'NONE', *, *, #137, .F. ) ;
#88 = VECTOR ( 'NONE', #59, 1000.000000000000000 ) ;
#89 = DIRECTION ( 'NONE',  ( -1.000000000000000000, 0.000000000000000000, 0.000000000000000000 ) ) ;
#90 = DIRECTION ( 'NONE',  ( 1.000000000000000000, 1.836909530733564901E-16, 0.000000000000000000 ) ) ;
#91 = CARTESIAN_POINT ( 'NONE',  ( 50.00000000000000000, 100.0000000000000000, 50.00000000000000000 ) ) ;
#92 = ORIENTED_EDGE ( 'NONE', *, *, #233, .T. ) ;
#93 = VECTOR ( 'NONE', #468, 1000.000000000000000 ) ;
#94 = EDGE_CURVE ( 'NONE', #585, #446, #540, .T. ) ;
#95 = LINE ( 'NONE', #694, #678 ) ;
#96 = FACE_OUTER_BOUND ( 'NONE', #107, .T. ) ;
#97 = PLANE ( 'NONE',  #203 ) ;
#98 = ORIENTED_EDGE ( 'NONE', *, *, #567, .T. ) ;
#99 = DIRECTION ( 'NONE',  ( 0.000000000000000000, -2.775557561562890365E-16, 1.000000000000000000 ) ) ;
#100 = AXIS2_PLACEMENT_3D ( 'NONE', #86, #30, #258 ) ;
#101 = LINE ( 'NONE', #599, #223 ) ;
#102 = VERTEX_POINT ( 'NONE', #141 ) ;
#103 = ORIENTED_EDGE ( 'NONE', *, *, #247, .F. ) ;
#104 = AXIS2_PLACEMENT_3D ( 'NONE', #194, #427, #554 ) ;
#105 = PRODUCT_DEFINITION_SHAPE ( 'NONE', 'NONE',  #428 ) ;
#106 = DATE_AND_TIME ( #674, #616 ) ;
#107 = EDGE_LOOP ( 'NONE', ( #605, #384, #289, #69 ) ) ;
#108 = EDGE_CURVE ( 'NONE', #552, #143, #312, .T. ) ;
#109 = EDGE_CURVE ( 'NONE', #353, #614, #700, .T. ) ;
#110 = CALENDAR_DATE ( 2024, 20, 8 ) ;
#111 = EDGE_LOOP ( 'NONE', ( #477, #441, #493, #663 ) ) ;
#112 = APPLICATION_PROTOCOL_DEFINITION ( 'international standard', 'config_control_design', 1994, #490 ) ;
#113 = ORIENTED_EDGE ( 'NONE', *, *, #365, .F. ) ;
#114 = ADVANCED_FACE ( 'NONE', ( #316 ), #594, .F. ) ;
#115 = VECTOR ( 'NONE', #321, 1000.000000000000000 ) ;
#116 =( NAMED_UNIT ( * ) PLANE_ANGLE_UNIT ( ) SI_UNIT ( $, .RADIAN. ) );
#117 = ORIENTED_EDGE ( 'NONE', *, *, #661, .T. ) ;
#118 = DIRECTION ( 'NONE',  ( 1.000000000000000000, 0.000000000000000000, 0.000000000000000000 ) ) ;
#119 = VERTEX_POINT ( 'NONE', #267 ) ;
#120 = CARTESIAN_POINT ( 'NONE',  ( 20.00000000000000000, -100.0000000000000000, -1.387778780781445991E-14 ) ) ;
#121 = ORIENTED_EDGE ( 'NONE', *, *, #704, .T. ) ;
#122 = LINE ( 'NONE', #16, #323 ) ;
#123 = PERSON_AND_ORGANIZATION ( #511, #693 ) ;
#124 = VECTOR ( 'NONE', #624, 1000.000000000000000 ) ;
#125 = ORIENTED_EDGE ( 'NONE', *, *, #320, .T. ) ;
#126 = EDGE_CURVE ( 'NONE', #470, #634, #598, .T. ) ;
#127 = ORIENTED_EDGE ( 'NONE', *, *, #717, .T. ) ;
#128 = DIRECTION ( 'NONE',  ( 0.000000000000000000, 0.000000000000000000, 1.000000000000000000 ) ) ;
#129 = ORIENTED_EDGE ( 'NONE', *, *, #456, .F. ) ;
#130 = AXIS2_PLACEMENT_3D ( 'NONE', #448, #665, #174 ) ;
#131 = AXIS2_PLACEMENT_3D ( 'NONE', #388, #604, #36 ) ;
#132 = CARTESIAN_POINT ( 'NONE',  ( -20.00000000000000000, 9.184547653667829437E-15, -50.00000000000000000 ) ) ;
#133 = DATE_TIME_ROLE ( 'classification_date' ) ;
#134 = DIRECTION ( 'NONE',  ( 0.000000000000000000, 0.000000000000000000, -1.000000000000000000 ) ) ;
#135 = PRODUCT ( 'Bauteil_H', 'Bauteil_H', '', ( #276 ) ) ;
#136 = CARTESIAN_POINT ( 'NONE',  ( 20.00000000000000000, 0.000000000000000000, 50.00000000000000000 ) ) ;
#137 = EDGE_CURVE ( 'NONE', #119, #398, #377, .T. ) ;
#138 = DIRECTION ( 'NONE',  ( 0.000000000000000000, 1.734723475976804876E-16, -1.000000000000000000 ) ) ;
#139 = AXIS2_PLACEMENT_3D ( 'NONE', #176, #635, #583 ) ;
#140 = DIRECTION ( 'NONE',  ( 0.000000000000000000, -1.000000000000000000, -2.775557561562890365E-16 ) ) ;
#141 = CARTESIAN_POINT ( 'NONE',  ( 50.00000000000000000, 100.0000000000000000, -20.00000000000000000 ) ) ;
#142 = DIRECTION ( 'NONE',  ( 1.000000000000000000, 0.000000000000000000, 0.000000000000000000 ) ) ;
#143 = VERTEX_POINT ( 'NONE', #709 ) ;
#144 = DIRECTION ( 'NONE',  ( 0.000000000000000000, 1.000000000000000000, 1.387778780781446169E-16 ) ) ;
#145 = CARTESIAN_POINT ( 'NONE',  ( 0.000000000000000000, 100.0000000000000000, -50.00000000000000000 ) ) ;
#146 = CARTESIAN_POINT ( 'NONE',  ( 0.000000000000000000, 100.0000000000000000, 50.00000000000000000 ) ) ;
#147 = EDGE_LOOP ( 'NONE', ( #87, #582, #545, #11 ) ) ;
#148 = EDGE_CURVE ( 'NONE', #622, #473, #150, .T. ) ;
#149 = DIRECTION ( 'NONE',  ( 0.000000000000000000, 0.000000000000000000, -1.000000000000000000 ) ) ;
#150 = LINE ( 'NONE', #592, #68 ) ;
#151 = CARTESIAN_POINT ( 'NONE',  ( 20.00000000000000000, -100.0000000000000000, -1.387778780781445991E-14 ) ) ;
#152 = VERTEX_POINT ( 'NONE', #24 ) ;
#153 = VECTOR ( 'NONE', #408, 1000.000000000000000 ) ;
#154 = CYLINDRICAL_SURFACE ( 'NONE', #306, 25.00000000000000000 ) ;
#155 = DIRECTION ( 'NONE',  ( 0.000000000000000000, 0.000000000000000000, 1.000000000000000000 ) ) ;
#156 = CARTESIAN_POINT ( 'NONE',  ( -50.00000000000000000, 100.0000000000000000, -50.00000000000000000 ) ) ;
#157 = ORIENTED_EDGE ( 'NONE', *, *, #579, .F. ) ;
#158 = EDGE_CURVE ( 'NONE', #57, #152, #192, .T. ) ;
#159 = CC_DESIGN_PERSON_AND_ORGANIZATION_ASSIGNMENT ( #4, #341, ( #428 ) ) ;
#160 = ORIENTED_EDGE ( 'NONE', *, *, #148, .F. ) ;
#161 = AXIS2_PLACEMENT_3D ( 'NONE', #649, #479, #370 ) ;
#162 = PERSON_AND_ORGANIZATION ( #511, #693 ) ;
#163 = VERTEX_POINT ( 'NONE', #81 ) ;
#164 = DIRECTION ( 'NONE',  ( -1.000000000000000000, -1.836909530733564901E-16, 0.000000000000000000 ) ) ;
#165 = AXIS2_PLACEMENT_3D ( 'NONE', #541, #255, #483 ) ;
#166 = ORIENTED_EDGE ( 'NONE', *, *, #385, .F. ) ;
#167 = EDGE_CURVE ( 'NONE', #407, #232, #435, .T. ) ;
#168 = CARTESIAN_POINT ( 'NONE',  ( 0.000000000000000000, 100.0000000000000000, 20.00000000000000000 ) ) ;
#169 = ORIENTED_EDGE ( 'NONE', *, *, #167, .F. ) ;
#170 = CC_DESIGN_PERSON_AND_ORGANIZATION_ASSIGNMENT ( #346, #343, ( #135 ) ) ;
#171 = AXIS2_PLACEMENT_3D ( 'NONE', #254, #42, #697 ) ;
#172 = LINE ( 'NONE', #526, #153 ) ;
#173 = CIRCLE ( 'NONE', #549, 24.99999999999999289 ) ;
#174 = DIRECTION ( 'NONE',  ( 1.000000000000000000, 0.000000000000000000, 0.000000000000000000 ) ) ;
#175 = EDGE_LOOP ( 'NONE', ( #222, #455, #507, #465 ) ) ;
#176 = CARTESIAN_POINT ( 'NONE',  ( 0.000000000000000000, 100.0000000000000000, 20.00000000000000000 ) ) ;
#177 = LINE ( 'NONE', #291, #590 ) ;
#178 = ADVANCED_BREP_SHAPE_REPRESENTATION ( 'Bauteil_H', ( #495, #130 ), #467 ) ;
#179 = CARTESIAN_POINT ( 'NONE',  ( 0.000000000000000000, 100.0000000000000000, -20.00000000000000000 ) ) ;
#180 = ADVANCED_FACE ( 'NONE', ( #96 ), #327, .F. ) ;
#181 = CALENDAR_DATE ( 2024, 20, 8 ) ;
#182 = EDGE_LOOP ( 'NONE', ( #504, #651, #272, #169 ) ) ;
#183 = EDGE_LOOP ( 'NONE', ( #725, #716 ) ) ;
#184 = CARTESIAN_POINT ( 'NONE',  ( -25.00000000000000000, 100.0000000000000000, 50.00000000000000000 ) ) ;
#185 = APPROVAL_STATUS ( 'not_yet_approved' ) ;
#186 = ORIENTED_EDGE ( 'NONE', *, *, #273, .T. ) ;
#187 = DIRECTION ( 'NONE',  ( 1.000000000000000000, 1.836909530733564901E-16, 0.000000000000000000 ) ) ;
#188 = DIRECTION ( 'NONE',  ( 1.000000000000000000, 0.000000000000000000, 0.000000000000000000 ) ) ;
#189 = ADVANCED_FACE ( 'NONE', ( #393 ), #670, .F. ) ;
#190 = AXIS2_PLACEMENT_3D ( 'NONE', #500, #99, #46 ) ;
#191 = PLANE ( 'NONE',  #460 ) ;
#192 = LINE ( 'NONE', #261, #450 ) ;
#193 = DIRECTION ( 'NONE',  ( 0.000000000000000000, -1.000000000000000000, -2.775557561562890365E-16 ) ) ;
#194 = CARTESIAN_POINT ( 'NONE',  ( 0.000000000000000000, 100.0000000000000000, -50.00000000000000000 ) ) ;
#195 = VECTOR ( 'NONE', #681, 1000.000000000000000 ) ;
#196 = DIRECTION ( 'NONE',  ( 0.000000000000000000, 0.000000000000000000, 1.000000000000000000 ) ) ;
#197 = VERTEX_POINT ( 'NONE', #419 ) ;
#198 = CARTESIAN_POINT ( 'NONE',  ( 50.00000000000000000, 1.836909530733564941E-14, 50.00000000000000000 ) ) ;
#199 = DIRECTION ( 'NONE',  ( -1.000000000000000000, 0.000000000000000000, 0.000000000000000000 ) ) ;
#200 = DIRECTION ( 'NONE',  ( 0.000000000000000000, 1.000000000000000000, 1.040834085586083887E-16 ) ) ;
#201 = ORIENTED_EDGE ( 'NONE', *, *, #6, .T. ) ;
#202 = APPROVAL_PERSON_ORGANIZATION ( #162, #728, #397 ) ;
#203 = AXIS2_PLACEMENT_3D ( 'NONE', #151, #271, #314 ) ;
#204 = DIRECTION ( 'NONE',  ( 0.000000000000000000, 0.000000000000000000, -1.000000000000000000 ) ) ;
#205 = CARTESIAN_POINT ( 'NONE',  ( 0.000000000000000000, 100.0000000000000000, 50.00000000000000000 ) ) ;
#206 = FACE_OUTER_BOUND ( 'NONE', #147, .T. ) ;
#207 = ORIENTED_EDGE ( 'NONE', *, *, #447, .T. ) ;
#208 = DIRECTION ( 'NONE',  ( 0.000000000000000000, 1.040834085586083887E-16, -1.000000000000000000 ) ) ;
#209 = PLANE ( 'NONE',  #229 ) ;
#210 = PLANE ( 'NONE',  #584 ) ;
#211 = VERTEX_POINT ( 'NONE', #410 ) ;
#212 = AXIS2_PLACEMENT_3D ( 'NONE', #586, #406, #519 ) ;
#213 = FACE_OUTER_BOUND ( 'NONE', #218, .T. ) ;
#214 = ORIENTED_EDGE ( 'NONE', *, *, #405, .F. ) ;
#215 = EDGE_CURVE ( 'NONE', #421, #342, #355, .T. ) ;
#216 = CC_DESIGN_APPROVAL ( #399, ( #361 ) ) ;
#217 = ORIENTED_EDGE ( 'NONE', *, *, #40, .T. ) ;
#218 = EDGE_LOOP ( 'NONE', ( #282, #129, #699, #166, #520, #299, #375, #103 ) ) ;
#219 = AXIS2_PLACEMENT_3D ( 'NONE', #522, #574, #10 ) ;
#220 = EDGE_CURVE ( 'NONE', #614, #514, #348, .T. ) ;
#221 = CARTESIAN_POINT ( 'NONE',  ( -20.00000000000000000, 0.000000000000000000, 50.00000000000000000 ) ) ;
#222 = ORIENTED_EDGE ( 'NONE', *, *, #262, .T. ) ;
#223 = VECTOR ( 'NONE', #650, 1000.000000000000000 ) ;
#224 = EDGE_LOOP ( 'NONE', ( #319, #44, #533, #52 ) ) ;
#225 = APPROVAL ( #185, 'UNSPECIFIED' ) ;
#226 = DIRECTION ( 'NONE',  ( 0.000000000000000000, 0.000000000000000000, 1.000000000000000000 ) ) ;
#227 = DATE_TIME_ROLE ( 'creation_date' ) ;
#228 = DIRECTION ( 'NONE',  ( 1.000000000000000000, 0.000000000000000000, 0.000000000000000000 ) ) ;
#229 = AXIS2_PLACEMENT_3D ( 'NONE', #145, #134, #642 ) ;
#230 = CARTESIAN_POINT ( 'NONE',  ( -50.00000000000000000, 0.000000000000000000, -50.00000000000000000 ) ) ;
#231 = SECURITY_CLASSIFICATION_LEVEL ( 'unclassified' ) ;
#232 = VERTEX_POINT ( 'NONE', #463 ) ;
#233 = EDGE_CURVE ( 'NONE', #398, #560, #475, .T. ) ;
#234 = LINE ( 'NONE', #516, #415 ) ;
#235 = EDGE_CURVE ( 'NONE', #417, #473, #471, .T. ) ;
#236 = ORIENTED_EDGE ( 'NONE', *, *, #233, .F. ) ;
#237 = ORIENTED_EDGE ( 'NONE', *, *, #137, .T. ) ;
#238 = DIRECTION ( 'NONE',  ( 0.000000000000000000, 0.000000000000000000, -1.000000000000000000 ) ) ;
#239 = AXIS2_PLACEMENT_3D ( 'NONE', #168, #727, #402 ) ;
#240 = APPROVAL_DATE_TIME ( #17, #399 ) ;
#241 = VERTEX_POINT ( 'NONE', #184 ) ;
#242 = ORIENTED_EDGE ( 'NONE', *, *, #587, .F. ) ;
#243 = LINE ( 'NONE', #630, #548 ) ;
#244 = CALENDAR_DATE ( 2024, 20, 8 ) ;
#245 = VECTOR ( 'NONE', #701, 1000.000000000000000 ) ;
#246 = VERTEX_POINT ( 'NONE', #67 ) ;
#247 = EDGE_CURVE ( 'NONE', #152, #102, #676, .T. ) ;
#248 = CARTESIAN_POINT ( 'NONE',  ( 50.00000000000000000, 100.0000000000000000, 50.00000000000000000 ) ) ;
#249 = PERSON_AND_ORGANIZATION_ROLE ( 'design_supplier' ) ;
#250 = CARTESIAN_POINT ( 'NONE',  ( 20.00000000000000000, -100.0000000000000000, -1.387778780781445991E-14 ) ) ;
#251 = CC_DESIGN_SECURITY_CLASSIFICATION ( #524, ( #361 ) ) ;
#252 = ADVANCED_FACE ( 'NONE', ( #457 ), #364, .F. ) ;
#253 = LINE ( 'NONE', #713, #559 ) ;
#254 = CARTESIAN_POINT ( 'NONE',  ( -50.00000000000000000, 0.000000000000000000, 50.00000000000000000 ) ) ;
#255 = DIRECTION ( 'NONE',  ( 1.000000000000000000, 0.000000000000000000, 0.000000000000000000 ) ) ;
#256 = CARTESIAN_POINT ( 'NONE',  ( -50.00000000000000000, 100.0000000000000000, -20.00000000000000000 ) ) ;
#257 = CARTESIAN_POINT ( 'NONE',  ( 50.00000000000000000, 100.0000000000000000, 50.00000000000000000 ) ) ;
#258 = DIRECTION ( 'NONE',  ( 0.000000000000000000, 0.000000000000000000, 1.000000000000000000 ) ) ;
#259 = ORIENTED_EDGE ( 'NONE', *, *, #373, .T. ) ;
#260 = LINE ( 'NONE', #535, #274 ) ;
#261 = CARTESIAN_POINT ( 'NONE',  ( 50.00000000000000000, 50.00000000000000000, 20.00000000000000000 ) ) ;
#262 = EDGE_CURVE ( 'NONE', #470, #102, #345, .T. ) ;
#263 = CYLINDRICAL_SURFACE ( 'NONE', #165, 25.00000000000000000 ) ;
#264 = ORIENTED_EDGE ( 'NONE', *, *, #82, .T. ) ;
#265 = CIRCLE ( 'NONE', #400, 25.00000000000000000 ) ;
#266 = DIRECTION ( 'NONE',  ( 0.000000000000000000, 0.000000000000000000, 1.000000000000000000 ) ) ;
#267 = CARTESIAN_POINT ( 'NONE',  ( -20.00000000000000000, -100.0000000000000000, 24.99999999999998579 ) ) ;
#268 = CARTESIAN_POINT ( 'NONE',  ( 20.00000000000000000, -100.0000000000000000, -50.00000000000000000 ) ) ;
#269 = EDGE_LOOP ( 'NONE', ( #63, #392 ) ) ;
#270 = LINE ( 'NONE', #705, #330 ) ;
#271 = DIRECTION ( 'NONE',  ( -1.000000000000000000, 0.000000000000000000, 0.000000000000000000 ) ) ;
#272 = ORIENTED_EDGE ( 'NONE', *, *, #303, .F. ) ;
#273 = EDGE_CURVE ( 'NONE', #163, #246, #243, .T. ) ;
#274 = VECTOR ( 'NONE', #593, 1000.000000000000000 ) ;
#275 = VECTOR ( 'NONE', #695, 1000.000000000000000 ) ;
#276 = MECHANICAL_CONTEXT ( 'NONE', #490, 'mechanical' ) ;
#277 = ORIENTED_EDGE ( 'NONE', *, *, #55, .F. ) ;
#278 = CC_DESIGN_APPROVAL ( #225, ( #524 ) ) ;
#279 =( LENGTH_UNIT ( ) NAMED_UNIT ( * ) SI_UNIT ( .MILLI., .METRE. ) );
#280 = ORIENTED_EDGE ( 'NONE', *, *, #158, .T. ) ;
#281 = CARTESIAN_POINT ( 'NONE',  ( 0.000000000000000000, 100.0000000000000000, 50.00000000000000000 ) ) ;
#282 = ORIENTED_EDGE ( 'NONE', *, *, #158, .F. ) ;
#283 = CIRCLE ( 'NONE', #633, 25.00000000000000000 ) ;
#284 = LINE ( 'NONE', #621, #88 ) ;
#285 = PRODUCT_RELATED_PRODUCT_CATEGORY ( 'detail', '', ( #135 ) ) ;
#286 = ORIENTED_EDGE ( 'NONE', *, *, #538, .T. ) ;
#287 = CC_DESIGN_APPROVAL ( #728, ( #428 ) ) ;
#288 = APPLICATION_PROTOCOL_DEFINITION ( 'international standard', 'config_control_design', 1994, #712 ) ;
#289 = ORIENTED_EDGE ( 'NONE', *, *, #425, .T. ) ;
#290 = CYLINDRICAL_SURFACE ( 'NONE', #382, 25.00000000000000000 ) ;
#291 = CARTESIAN_POINT ( 'NONE',  ( -25.00000000000000000, 100.0000000000000000, -50.00000000000000000 ) ) ;
#292 = EDGE_CURVE ( 'NONE', #569, #119, #658, .T. ) ;
#293 = EDGE_CURVE ( 'NONE', #614, #353, #283, .T. ) ;
#294 = AXIS2_PLACEMENT_3D ( 'NONE', #390, #387, #164 ) ;
#295 = DIRECTION ( 'NONE',  ( 0.000000000000000000, 1.000000000000000000, 6.938893903907225912E-17 ) ) ;
#296 = LINE ( 'NONE', #688, #33 ) ;
#297 = LINE ( 'NONE', #691, #93 ) ;
#298 = CALENDAR_DATE ( 2024, 20, 8 ) ;
#299 = ORIENTED_EDGE ( 'NONE', *, *, #618, .T. ) ;
#300 = CIRCLE ( 'NONE', #100, 50.00000000000000000 ) ;
#301 = ORIENTED_EDGE ( 'NONE', *, *, #373, .F. ) ;
#302 = FACE_OUTER_BOUND ( 'NONE', #224, .T. ) ;
#303 = EDGE_CURVE ( 'NONE', #232, #342, #122, .T. ) ;
#304 = VERTEX_POINT ( 'NONE', #71 ) ;
#305 = CARTESIAN_POINT ( 'NONE',  ( -20.00000000000000000, -100.0000000000000000, 50.00000000000000000 ) ) ;
#306 = AXIS2_PLACEMENT_3D ( 'NONE', #34, #368, #28 ) ;
#307 = COORDINATED_UNIVERSAL_TIME_OFFSET ( 1, 0, .AHEAD. ) ;
#308 = CIRCLE ( 'NONE', #58, 25.00000000000000000 ) ;
#309 = CARTESIAN_POINT ( 'NONE',  ( -50.00002499999999372, -100.0000000000000000, 24.99999999999998579 ) ) ;
#310 = EDGE_CURVE ( 'NONE', #246, #449, #234, .T. ) ;
#311 = CARTESIAN_POINT ( 'NONE',  ( -50.00000000000000000, 150.0000000000000000, -20.00000000000000000 ) ) ;
#312 = LINE ( 'NONE', #257, #501 ) ;
#313 = LOCAL_TIME ( 9, 13, 46.00000000000000000, #464 ) ;
#314 = DIRECTION ( 'NONE',  ( 0.000000000000000000, 0.000000000000000000, 1.000000000000000000 ) ) ;
#315 = CARTESIAN_POINT ( 'NONE',  ( -20.00000000000000000, -100.0000000000000000, -50.00000000000000000 ) ) ;
#316 = FACE_OUTER_BOUND ( 'NONE', #452, .T. ) ;
#317 = AXIS2_PLACEMENT_3D ( 'NONE', #281, #336, #51 ) ;
#318 = FACE_OUTER_BOUND ( 'NONE', #558, .T. ) ;
#319 = ORIENTED_EDGE ( 'NONE', *, *, #702, .F. ) ;
#320 = EDGE_CURVE ( 'NONE', #685, #585, #297, .T. ) ;
#321 = DIRECTION ( 'NONE',  ( 0.000000000000000000, 0.000000000000000000, -1.000000000000000000 ) ) ;
#322 = CARTESIAN_POINT ( 'NONE',  ( -50.00000000000000000, 50.00000000000000000, 20.00000000000000000 ) ) ;
#323 = VECTOR ( 'NONE', #74, 1000.000000000000000 ) ;
#324 = DIRECTION ( 'NONE',  ( 1.000000000000000000, 0.000000000000000000, 0.000000000000000000 ) ) ;
#325 = EDGE_LOOP ( 'NONE', ( #692, #711, #329, #576 ) ) ;
#326 = CARTESIAN_POINT ( 'NONE',  ( -20.00000000000000000, 5.510728592200700029E-15, -50.00000000000000000 ) ) ;
#327 = CYLINDRICAL_SURFACE ( 'NONE', #104, 25.00000000000000000 ) ;
#328 = CARTESIAN_POINT ( 'NONE',  ( 20.00000000000000000, -100.0000000000000000, -1.387778780781445991E-14 ) ) ;
#329 = ORIENTED_EDGE ( 'NONE', *, *, #413, .F. ) ;
#330 = VECTOR ( 'NONE', #200, 1000.000000000000000 ) ;
#331 = CARTESIAN_POINT ( 'NONE',  ( -25.00000000000000000, 100.0000000000000000, -20.00000000000000000 ) ) ;
#332 = EDGE_CURVE ( 'NONE', #197, #163, #172, .T. ) ;
#333 = FACE_BOUND ( 'NONE', #612, .T. ) ;
#334 = ORIENTED_EDGE ( 'NONE', *, *, #462, .F. ) ;
#335 = VECTOR ( 'NONE', #671, 1000.000000000000000 ) ;
#336 = DIRECTION ( 'NONE',  ( 0.000000000000000000, 0.000000000000000000, -1.000000000000000000 ) ) ;
#337 = ORIENTED_EDGE ( 'NONE', *, *, #292, .T. ) ;
#338 = AXIS2_PLACEMENT_3D ( 'NONE', #652, #149, #89 ) ;
#339 = APPROVAL_STATUS ( 'not_yet_approved' ) ;
#340 = ORIENTED_EDGE ( 'NONE', *, *, #61, .T. ) ;
#341 = PERSON_AND_ORGANIZATION_ROLE ( 'creator' ) ;
#342 = VERTEX_POINT ( 'NONE', #12 ) ;
#343 = PERSON_AND_ORGANIZATION_ROLE ( 'design_owner' ) ;
#344 = ORIENTED_EDGE ( 'NONE', *, *, #94, .T. ) ;
#345 = CIRCLE ( 'NONE', #354, 50.00000000000001421 ) ;
#346 = PERSON_AND_ORGANIZATION ( #511, #693 ) ;
#347 = CYLINDRICAL_SURFACE ( 'NONE', #79, 25.00000000000000000 ) ;
#348 = LINE ( 'NONE', #638, #521 ) ;
#349 = EDGE_CURVE ( 'NONE', #560, #398, #623, .T. ) ;
#350 = ORIENTED_EDGE ( 'NONE', *, *, #292, .F. ) ;
#351 = DIRECTION ( 'NONE',  ( 0.000000000000000000, 1.040834085586083887E-16, -1.000000000000000000 ) ) ;
#352 = COORDINATED_UNIVERSAL_TIME_OFFSET ( 1, 0, .AHEAD. ) ;
#353 = VERTEX_POINT ( 'NONE', #64 ) ;
#354 = AXIS2_PLACEMENT_3D ( 'NONE', #179, #351, #295 ) ;
#355 = LINE ( 'NONE', #230, #396 ) ;
#356 = CLOSED_SHELL ( 'NONE', ( #252, #359, #438, #474, #668, #114, #189, #546, #680, #442, #70, #512, #418, #577, #180, #13, #66, #611, #628, #561 ) ) ;
#357 = APPROVAL_ROLE ( '' ) ;
#358 = ORIENTED_EDGE ( 'NONE', *, *, #704, .F. ) ;
#359 = ADVANCED_FACE ( 'NONE', ( #302 ), #290, .F. ) ;
#360 = DIRECTION ( 'NONE',  ( 0.000000000000000000, 0.000000000000000000, 1.000000000000000000 ) ) ;
#361 = PRODUCT_DEFINITION_FORMATION_WITH_SPECIFIED_SOURCE ( 'ANY', '', #135, .NOT_KNOWN. ) ;
#362 = PERSON_AND_ORGANIZATION ( #511, #693 ) ;
#363 = ORIENTED_EDGE ( 'NONE', *, *, #489, .F. ) ;
#364 = CYLINDRICAL_SURFACE ( 'NONE', #212, 25.00000000000000000 ) ;
#365 = EDGE_CURVE ( 'NONE', #143, #685, #690, .T. ) ;
#366 = SHAPE_DEFINITION_REPRESENTATION ( #105, #178 ) ;
#367 = CARTESIAN_POINT ( 'NONE',  ( 25.00000000000000000, 100.0000000000000000, 50.00000000000000000 ) ) ;
#368 = DIRECTION ( 'NONE',  ( 0.000000000000000000, 0.000000000000000000, 1.000000000000000000 ) ) ;
#369 = CIRCLE ( 'NONE', #534, 50.00000000000000000 ) ;
#370 = DIRECTION ( 'NONE',  ( 0.000000000000000000, -1.000000000000000000, -2.775557561562892337E-16 ) ) ;
#371 = FACE_OUTER_BOUND ( 'NONE', #647, .T. ) ;
#372 = CYLINDRICAL_SURFACE ( 'NONE', #613, 50.00000000000000000 ) ;
#373 = EDGE_CURVE ( 'NONE', #407, #660, #531, .T. ) ;
#374 = PLANE ( 'NONE',  #453 ) ;
#375 = ORIENTED_EDGE ( 'NONE', *, *, #480, .F. ) ;
#376 = CARTESIAN_POINT ( 'NONE',  ( 25.00000000000000000, 100.0000000000000000, -50.00000000000000000 ) ) ;
#377 = LINE ( 'NONE', #309, #8 ) ;
#378 = DIRECTION ( 'NONE',  ( 0.000000000000000000, 0.000000000000000000, 1.000000000000000000 ) ) ;
#379 = ORIENTED_EDGE ( 'NONE', *, *, #40, .F. ) ;
#380 = CARTESIAN_POINT ( 'NONE',  ( -50.00000000000000000, 100.0000000000000000, 50.00000000000000000 ) ) ;
#381 = CARTESIAN_POINT ( 'NONE',  ( 0.000000000000000000, 100.0000000000000000, -50.00000000000000000 ) ) ;
#382 = AXIS2_PLACEMENT_3D ( 'NONE', #416, #128, #7 ) ;
#383 = CARTESIAN_POINT ( 'NONE',  ( -25.00000000000000000, 100.0000000000000000, -50.00000000000000000 ) ) ;
#384 = ORIENTED_EDGE ( 'NONE', *, *, #109, .F. ) ;
#385 = EDGE_CURVE ( 'NONE', #232, #552, #547, .T. ) ;
#386 = LINE ( 'NONE', #380, #115 ) ;
#387 = DIRECTION ( 'NONE',  ( -1.836909530733564901E-16, 1.000000000000000000, 0.000000000000000000 ) ) ;
#388 = CARTESIAN_POINT ( 'NONE',  ( 50.00000000000000000, 1.836909530733564941E-14, 50.00000000000000000 ) ) ;
#389 = ORIENTED_EDGE ( 'NONE', *, *, #528, .F. ) ;
#390 = CARTESIAN_POINT ( 'NONE',  ( -50.00000000000000000, 0.000000000000000000, 50.00000000000000000 ) ) ;
#391 = DIRECTION ( 'NONE',  ( 0.000000000000000000, -1.000000000000000000, 0.000000000000000000 ) ) ;
#392 = ORIENTED_EDGE ( 'NONE', *, *, #293, .T. ) ;
#393 = FACE_OUTER_BOUND ( 'NONE', #60, .T. ) ;
#394 = APPROVAL_STATUS ( 'not_yet_approved' ) ;
#395 = ORIENTED_EDGE ( 'NONE', *, *, #505, .F. ) ;
#396 = VECTOR ( 'NONE', #187, 1000.000000000000000 ) ;
#397 = APPROVAL_ROLE ( '' ) ;
#398 = VERTEX_POINT ( 'NONE', #430 ) ;
#399 = APPROVAL ( #339, 'UNSPECIFIED' ) ;
#400 = AXIS2_PLACEMENT_3D ( 'NONE', #544, #196, #324 ) ;
#401 = ORIENTED_EDGE ( 'NONE', *, *, #637, .F. ) ;
#402 = DIRECTION ( 'NONE',  ( 0.000000000000000000, -1.000000000000000000, -2.775557561562892337E-16 ) ) ;
#403 = ORIENTED_EDGE ( 'NONE', *, *, #126, .T. ) ;
#404 = AXIS2_PLACEMENT_3D ( 'NONE', #707, #39, #21 ) ;
#405 = EDGE_CURVE ( 'NONE', #119, #569, #308, .T. ) ;
#406 = DIRECTION ( 'NONE',  ( 1.000000000000000000, 0.000000000000000000, 0.000000000000000000 ) ) ;
#407 = VERTEX_POINT ( 'NONE', #657 ) ;
#408 = DIRECTION ( 'NONE',  ( 0.000000000000000000, -1.000000000000000000, 0.000000000000000000 ) ) ;
#409 = DIRECTION ( 'NONE',  ( 0.000000000000000000, 0.000000000000000000, 1.000000000000000000 ) ) ;
#410 = CARTESIAN_POINT ( 'NONE',  ( -25.00000000000000000, 100.0000000000000000, 20.00000000000000000 ) ) ;
#411 = DATE_AND_TIME ( #298, #313 ) ;
#412 = EDGE_LOOP ( 'NONE', ( #401, #277, #469, #620, #395, #217, #73, #160 ) ) ;
#413 = EDGE_CURVE ( 'NONE', #530, #514, #643, .T. ) ;
#414 = ORIENTED_EDGE ( 'NONE', *, *, #148, .T. ) ;
#415 = VECTOR ( 'NONE', #684, 1000.000000000000000 ) ;
#416 = CARTESIAN_POINT ( 'NONE',  ( 0.000000000000000000, 100.0000000000000000, -50.00000000000000000 ) ) ;
#417 = VERTEX_POINT ( 'NONE', #315 ) ;
#418 = ADVANCED_FACE ( 'NONE', ( #539, #371 ), #191, .F. ) ;
#419 = CARTESIAN_POINT ( 'NONE',  ( -50.00000000000000000, 100.0000000000000000, 50.00000000000000000 ) ) ;
#420 = LOCAL_TIME ( 9, 13, 46.00000000000000000, #307 ) ;
#421 = VERTEX_POINT ( 'NONE', #542 ) ;
#422 = CARTESIAN_POINT ( 'NONE',  ( 0.000000000000000000, 100.0000000000000000, -20.00000000000000000 ) ) ;
#423 = FACE_BOUND ( 'NONE', #269, .T. ) ;
#424 = DIRECTION ( 'NONE',  ( 0.000000000000000000, 1.040834085586083887E-16, -1.000000000000000000 ) ) ;
#425 = EDGE_CURVE ( 'NONE', #353, #530, #478, .T. ) ;
#426 = AXIS2_PLACEMENT_3D ( 'NONE', #381, #35, #703 ) ;
#427 = DIRECTION ( 'NONE',  ( 0.000000000000000000, 0.000000000000000000, 1.000000000000000000 ) ) ;
#428 = PRODUCT_DEFINITION ( 'UNKNOWN', '', #361, #466 ) ;
#429 = DIRECTION ( 'NONE',  ( -4.163336342344335054E-16, 1.000000000000000000, 0.000000000000000000 ) ) ;
#430 = CARTESIAN_POINT ( 'NONE',  ( 20.00000000000000000, -100.0000000000000000, 24.99999999999998579 ) ) ;
#431 = DIRECTION ( 'NONE',  ( 0.000000000000000000, 0.000000000000000000, -1.000000000000000000 ) ) ;
#432 = CARTESIAN_POINT ( 'NONE',  ( 25.00000000000000000, 100.0000000000000000, -20.00000000000000000 ) ) ;
#433 = ORIENTED_EDGE ( 'NONE', *, *, #273, .F. ) ;
#434 = DIRECTION ( 'NONE',  ( 0.000000000000000000, 1.000000000000000000, 2.081668171172169746E-16 ) ) ;
#435 = LINE ( 'NONE', #654, #718 ) ;
#436 = CARTESIAN_POINT ( 'NONE',  ( -50.00002499999999372, -100.0000000000000000, -25.00000000000001421 ) ) ;
#437 = ORIENTED_EDGE ( 'NONE', *, *, #609, .F. ) ;
#438 = ADVANCED_FACE ( 'NONE', ( #640 ), #154, .F. ) ;
#439 = LINE ( 'NONE', #248, #78 ) ;
#440 = FACE_BOUND ( 'NONE', #15, .T. ) ;
#441 = ORIENTED_EDGE ( 'NONE', *, *, #717, .F. ) ;
#442 = ADVANCED_FACE ( 'NONE', ( #84, #644 ), #597, .F. ) ;
#443 = LINE ( 'NONE', #662, #619 ) ;
#444 = ORIENTED_EDGE ( 'NONE', *, *, #320, .F. ) ;
#445 = CARTESIAN_POINT ( 'NONE',  ( 0.000000000000000000, 100.0000000000000000, 50.00000000000000000 ) ) ;
#446 = VERTEX_POINT ( 'NONE', #591 ) ;
#447 = EDGE_CURVE ( 'NONE', #197, #685, #386, .T. ) ;
#448 = CARTESIAN_POINT ( 'NONE',  ( 0.000000000000000000, 0.000000000000000000, 0.000000000000000000 ) ) ;
#449 = VERTEX_POINT ( 'NONE', #305 ) ;
#450 = VECTOR ( 'NONE', #138, 1000.000000000000000 ) ;
#451 = CYLINDRICAL_SURFACE ( 'NONE', #317, 50.00000000000000000 ) ;
#452 = EDGE_LOOP ( 'NONE', ( #207, #125, #344, #675, #403, #706, #358, #721 ) ) ;
#453 = AXIS2_PLACEMENT_3D ( 'NONE', #659, #595, #155 ) ;
#454 = APPROVAL_DATE_TIME ( #568, #728 ) ;
#455 = ORIENTED_EDGE ( 'NONE', *, *, #480, .T. ) ;
#456 = EDGE_CURVE ( 'NONE', #143, #57, #496, .T. ) ;
#457 = FACE_OUTER_BOUND ( 'NONE', #729, .T. ) ;
#458 = FACE_OUTER_BOUND ( 'NONE', #175, .T. ) ;
#459 = ORIENTED_EDGE ( 'NONE', *, *, #456, .T. ) ;
#460 = AXIS2_PLACEMENT_3D ( 'NONE', #311, #208, #23 ) ;
#461 = CIRCLE ( 'NONE', #426, 50.00000000000000000 ) ;
#462 = EDGE_CURVE ( 'NONE', #660, #449, #260, .T. ) ;
#463 = CARTESIAN_POINT ( 'NONE',  ( 50.00000000000000000, 1.836909530733564941E-14, 50.00000000000000000 ) ) ;
#464 = COORDINATED_UNIVERSAL_TIME_OFFSET ( 1, 0, .AHEAD. ) ;
#465 = ORIENTED_EDGE ( 'NONE', *, *, #126, .F. ) ;
#466 = DESIGN_CONTEXT ( 'detailed design', #712, 'design' ) ;
#467 =( GEOMETRIC_REPRESENTATION_CONTEXT ( 3 ) GLOBAL_UNCERTAINTY_ASSIGNED_CONTEXT ( ( #45 ) ) GLOBAL_UNIT_ASSIGNED_CONTEXT ( ( #279, #116, #513 ) ) REPRESENTATION_CONTEXT ( 'NONE', 'WORKASPACE' ) );
#468 = DIRECTION ( 'NONE',  ( 0.000000000000000000, -1.000000000000000000, -2.775557561562890365E-16 ) ) ;
#469 = ORIENTED_EDGE ( 'NONE', *, *, #618, .F. ) ;
#470 = VERTEX_POINT ( 'NONE', #256 ) ;
#471 = LINE ( 'NONE', #132, #124 ) ;
#472 = PERSON_AND_ORGANIZATION_ROLE ( 'creator' ) ;
#473 = VERTEX_POINT ( 'NONE', #326 ) ;
#474 = ADVANCED_FACE ( 'NONE', ( #553 ), #488, .F. ) ;
#475 = CIRCLE ( 'NONE', #667, 25.00000000000000000 ) ;
#476 = DIRECTION ( 'NONE',  ( 1.000000000000000000, 0.000000000000000000, 0.000000000000000000 ) ) ;
#477 = ORIENTED_EDGE ( 'NONE', *, *, #310, .F. ) ;
#478 = LINE ( 'NONE', #376, #20 ) ;
#479 = DIRECTION ( 'NONE',  ( 0.000000000000000000, -2.775557561562890365E-16, 1.000000000000000000 ) ) ;
#480 = EDGE_CURVE ( 'NONE', #102, #304, #439, .T. ) ;
#481 = FACE_BOUND ( 'NONE', #48, .T. ) ;
#482 = CARTESIAN_POINT ( 'NONE',  ( 0.000000000000000000, 100.0000000000000000, -50.00000000000000000 ) ) ;
#483 = DIRECTION ( 'NONE',  ( 0.000000000000000000, 0.000000000000000000, -1.000000000000000000 ) ) ;
#484 = CARTESIAN_POINT ( 'NONE',  ( -20.00000000000000000, -100.0000000000000000, -1.387778780781445991E-14 ) ) ;
#485 = DIRECTION ( 'NONE',  ( 0.000000000000000000, 0.000000000000000000, 1.000000000000000000 ) ) ;
#486 = DIRECTION ( 'NONE',  ( 1.000000000000000000, 0.000000000000000000, 0.000000000000000000 ) ) ;
#487 = EDGE_LOOP ( 'NONE', ( #656, #18, #14, #563 ) ) ;
#488 = PLANE ( 'NONE',  #404 ) ;
#489 = EDGE_CURVE ( 'NONE', #446, #152, #95, .T. ) ;
#490 = APPLICATION_CONTEXT ( 'configuration controlled 3d designs of mechanical parts and assemblies' ) ;
#491 = FACE_OUTER_BOUND ( 'NONE', #412, .T. ) ;
#492 = FACE_OUTER_BOUND ( 'NONE', #632, .T. ) ;
#493 = ORIENTED_EDGE ( 'NONE', *, *, #235, .F. ) ;
#494 = CIRCLE ( 'NONE', #527, 50.00000000000000000 ) ;
#495 = MANIFOLD_SOLID_BREP ( 'Imported1', #356 ) ;
#496 = LINE ( 'NONE', #602, #719 ) ;
#497 = CARTESIAN_POINT ( 'NONE',  ( -50.00000000000000000, 100.0000000000000000, 50.00000000000000000 ) ) ;
#498 = CARTESIAN_POINT ( 'NONE',  ( 20.00000000000000000, -100.0000000000000000, -25.00000000000001421 ) ) ;
#499 = EDGE_LOOP ( 'NONE', ( #459, #566, #444, #113 ) ) ;
#500 = CARTESIAN_POINT ( 'NONE',  ( -50.00000000000000000, 150.0000000000000000, 20.00000000000000000 ) ) ;
#501 = VECTOR ( 'NONE', #431, 1000.000000000000000 ) ;
#502 = CARTESIAN_POINT ( 'NONE',  ( -50.00000000000000000, 0.000000000000000000, -50.00000000000000000 ) ) ;
#503 = ORIENTED_EDGE ( 'NONE', *, *, #505, .T. ) ;
#504 = ORIENTED_EDGE ( 'NONE', *, *, #567, .F. ) ;
#505 = EDGE_CURVE ( 'NONE', #617, #421, #253, .T. ) ;
#506 = DIRECTION ( 'NONE',  ( -1.000000000000000000, 0.000000000000000000, 0.000000000000000000 ) ) ;
#507 = ORIENTED_EDGE ( 'NONE', *, *, #55, .T. ) ;
#508 = LINE ( 'NONE', #677, #653 ) ;
#509 = ORIENTED_EDGE ( 'NONE', *, *, #538, .F. ) ;
#510 = AXIS2_PLACEMENT_3D ( 'NONE', #627, #687, #238 ) ;
#511 = PERSON ( 'UNSPECIFIED', 'UNSPECIFIED', 'UNSPECIFIED', ('UNSPECIFIED'), ('UNSPECIFIED'), ('UNSPECIFIED') ) ;
#512 = ADVANCED_FACE ( 'NONE', ( #481, #696 ), #556, .F. ) ;
#513 =( NAMED_UNIT ( * ) SI_UNIT ( $, .STERADIAN. ) SOLID_ANGLE_UNIT ( ) );
#514 = VERTEX_POINT ( 'NONE', #331 ) ;
#515 = AXIS2_PLACEMENT_3D ( 'NONE', #445, #53, #506 ) ;
#516 = CARTESIAN_POINT ( 'NONE',  ( -20.00000000000000000, 0.000000000000000000, 50.00000000000000000 ) ) ;
#517 = LINE ( 'NONE', #221, #335 ) ;
#518 = ORIENTED_EDGE ( 'NONE', *, *, #247, .T. ) ;
#519 = DIRECTION ( 'NONE',  ( 0.000000000000000000, 0.000000000000000000, -1.000000000000000000 ) ) ;
#520 = ORIENTED_EDGE ( 'NONE', *, *, #303, .T. ) ;
#521 = VECTOR ( 'NONE', #226, 1000.000000000000000 ) ;
#522 = CARTESIAN_POINT ( 'NONE',  ( -20.00000000000000000, -100.0000000000000000, -1.387778780781445991E-14 ) ) ;
#523 = ORIENTED_EDGE ( 'NONE', *, *, #489, .T. ) ;
#524 = SECURITY_CLASSIFICATION ( '', '', #231 ) ;
#525 = ORIENTED_EDGE ( 'NONE', *, *, #310, .T. ) ;
#526 = CARTESIAN_POINT ( 'NONE',  ( -50.00000000000000000, 0.000000000000000000, 50.00000000000000000 ) ) ;
#527 = AXIS2_PLACEMENT_3D ( 'NONE', #328, #486, #555 ) ;
#528 = EDGE_CURVE ( 'NONE', #446, #470, #270, .T. ) ;
#529 = EDGE_LOOP ( 'NONE', ( #117, #379, #509, #9 ) ) ;
#530 = VERTEX_POINT ( 'NONE', #432 ) ;
#531 = LINE ( 'NONE', #136, #570 ) ;
#532 = PERSON_AND_ORGANIZATION ( #511, #693 ) ;
#533 = ORIENTED_EDGE ( 'NONE', *, *, #587, .T. ) ;
#534 = AXIS2_PLACEMENT_3D ( 'NONE', #205, #588, #199 ) ;
#535 = CARTESIAN_POINT ( 'NONE',  ( 20.00000000000000000, -100.0000000000000000, 50.00000000000000000 ) ) ;
#536 = PERSON_AND_ORGANIZATION_ROLE ( 'classification_officer' ) ;
#537 = DIRECTION ( 'NONE',  ( 1.000000000000000000, 0.000000000000000000, 0.000000000000000000 ) ) ;
#538 = EDGE_CURVE ( 'NONE', #660, #617, #494, .T. ) ;
#539 = FACE_BOUND ( 'NONE', #183, .T. ) ;
#540 = LINE ( 'NONE', #322, #726 ) ;
#541 = CARTESIAN_POINT ( 'NONE',  ( -50.00002499999999372, -100.0000000000000000, -1.387778780781445991E-14 ) ) ;
#542 = CARTESIAN_POINT ( 'NONE',  ( 20.00000000000000000, 1.285836671513495963E-14, -50.00000000000000000 ) ) ;
#543 = CARTESIAN_POINT ( 'NONE',  ( 20.00000000000000000, -100.0000000000000000, -50.00000000000000000 ) ) ;
#544 = CARTESIAN_POINT ( 'NONE',  ( 0.000000000000000000, 100.0000000000000000, 50.00000000000000000 ) ) ;
#545 = ORIENTED_EDGE ( 'NONE', *, *, #579, .T. ) ;
#546 = ADVANCED_FACE ( 'NONE', ( #213 ), #43, .F. ) ;
#547 = LINE ( 'NONE', #198, #245 ) ;
#548 = VECTOR ( 'NONE', #76, 1000.000000000000000 ) ;
#549 = AXIS2_PLACEMENT_3D ( 'NONE', #682, #65, #629 ) ;
#550 = DIRECTION ( 'NONE',  ( 1.000000000000000000, 0.000000000000000000, 0.000000000000000000 ) ) ;
#551 = CARTESIAN_POINT ( 'NONE',  ( 50.00000000000000000, 1.836909530733564941E-14, -50.00000000000000000 ) ) ;
#552 = VERTEX_POINT ( 'NONE', #91 ) ;
#553 = FACE_OUTER_BOUND ( 'NONE', #182, .T. ) ;
#554 = DIRECTION ( 'NONE',  ( 1.000000000000000000, 0.000000000000000000, 0.000000000000000000 ) ) ;
#555 = DIRECTION ( 'NONE',  ( 0.000000000000000000, 0.000000000000000000, 1.000000000000000000 ) ) ;
#556 = PLANE ( 'NONE',  #190 ) ;
#557 = CARTESIAN_POINT ( 'NONE',  ( -20.00000000000000000, -100.0000000000000000, -25.00000000000001421 ) ) ;
#558 = EDGE_LOOP ( 'NONE', ( #259, #286, #503, #98 ) ) ;
#559 = VECTOR ( 'NONE', #434, 1000.000000000000000 ) ;
#560 = VERTEX_POINT ( 'NONE', #498 ) ;
#561 = ADVANCED_FACE ( 'NONE', ( #206 ), #263, .F. ) ;
#562 = CARTESIAN_POINT ( 'NONE',  ( -50.00000000000000000, 100.0000000000000000, 20.00000000000000000 ) ) ;
#563 = ORIENTED_EDGE ( 'NONE', *, *, #82, .F. ) ;
#564 = COORDINATED_UNIVERSAL_TIME_OFFSET ( 1, 0, .AHEAD. ) ;
#565 = CIRCLE ( 'NONE', #239, 24.99999999999999289 ) ;
#566 = ORIENTED_EDGE ( 'NONE', *, *, #6, .F. ) ;
#567 = EDGE_CURVE ( 'NONE', #421, #407, #101, .T. ) ;
#568 = DATE_AND_TIME ( #110, #38 ) ;
#569 = VERTEX_POINT ( 'NONE', #557 ) ;
#570 = VECTOR ( 'NONE', #193, 1000.000000000000000 ) ;
#571 = CARTESIAN_POINT ( 'NONE',  ( 0.000000000000000000, 100.0000000000000000, -50.00000000000000000 ) ) ;
#572 = CARTESIAN_POINT ( 'NONE',  ( 50.00000000000000000, 150.0000000000000000, -20.00000000000000000 ) ) ;
#573 = FACE_OUTER_BOUND ( 'NONE', #679, .T. ) ;
#574 = DIRECTION ( 'NONE',  ( -1.000000000000000000, 0.000000000000000000, 0.000000000000000000 ) ) ;
#575 = DATE_AND_TIME ( #244, #683 ) ;
#576 = ORIENTED_EDGE ( 'NONE', *, *, #425, .F. ) ;
#577 = ADVANCED_FACE ( 'NONE', ( #492 ), #210, .F. ) ;
#578 = AXIS2_PLACEMENT_3D ( 'NONE', #482, #645, #550 ) ;
#579 = EDGE_CURVE ( 'NONE', #569, #560, #720, .T. ) ;
#580 = CARTESIAN_POINT ( 'NONE',  ( 0.000000000000000000, 100.0000000000000000, -50.00000000000000000 ) ) ;
#581 = APPROVAL_ROLE ( '' ) ;
#582 = ORIENTED_EDGE ( 'NONE', *, *, #405, .T. ) ;
#583 = DIRECTION ( 'NONE',  ( 0.000000000000000000, -1.000000000000000000, -2.775557561562891351E-16 ) ) ;
#584 = AXIS2_PLACEMENT_3D ( 'NONE', #710, #715, #698 ) ;
#585 = VERTEX_POINT ( 'NONE', #47 ) ;
#586 = CARTESIAN_POINT ( 'NONE',  ( -50.00002499999999372, -100.0000000000000000, -1.387778780781445991E-14 ) ) ;
#587 = EDGE_CURVE ( 'NONE', #241, #54, #41, .T. ) ;
#588 = DIRECTION ( 'NONE',  ( 0.000000000000000000, 0.000000000000000000, 1.000000000000000000 ) ) ;
#589 = AXIS2_PLACEMENT_3D ( 'NONE', #422, #424, #144 ) ;
#590 = VECTOR ( 'NONE', #409, 1000.000000000000000 ) ;
#591 = CARTESIAN_POINT ( 'NONE',  ( -50.00000000000000000, 50.00000000000000000, -20.00000000000000000 ) ) ;
#592 = CARTESIAN_POINT ( 'NONE',  ( -50.00000000000000000, 0.000000000000000000, -50.00000000000000000 ) ) ;
#593 = DIRECTION ( 'NONE',  ( -1.000000000000000000, 0.000000000000000000, 0.000000000000000000 ) ) ;
#594 = PLANE ( 'NONE',  #171 ) ;
#595 = DIRECTION ( 'NONE',  ( -1.000000000000000000, 0.000000000000000000, 0.000000000000000000 ) ) ;
#596 = ORIENTED_EDGE ( 'NONE', *, *, #609, .T. ) ;
#597 = PLANE ( 'NONE',  #338 ) ;
#598 = LINE ( 'NONE', #497, #32 ) ;
#599 = CARTESIAN_POINT ( 'NONE',  ( 20.00000000000000000, 0.000000000000000000, 50.00000000000000000 ) ) ;
#600 = VERTEX_POINT ( 'NONE', #607 ) ;
#601 = CC_DESIGN_DATE_AND_TIME_ASSIGNMENT ( #575, #133, ( #524 ) ) ;
#602 = CARTESIAN_POINT ( 'NONE',  ( 50.00000000000000000, 150.0000000000000000, 20.00000000000000000 ) ) ;
#603 = DIRECTION ( 'NONE',  ( 1.000000000000000000, 1.836909530733564901E-16, 0.000000000000000000 ) ) ;
#604 = DIRECTION ( 'NONE',  ( -1.000000000000000000, -4.163336342344335054E-16, 0.000000000000000000 ) ) ;
#605 = ORIENTED_EDGE ( 'NONE', *, *, #220, .F. ) ;
#606 = DIRECTION ( 'NONE',  ( 0.000000000000000000, 0.000000000000000000, 1.000000000000000000 ) ) ;
#607 = CARTESIAN_POINT ( 'NONE',  ( 25.00000000000000000, 100.0000000000000000, 20.00000000000000000 ) ) ;
#608 = ORIENTED_EDGE ( 'NONE', *, *, #349, .F. ) ;
#609 = EDGE_CURVE ( 'NONE', #54, #241, #265, .T. ) ;
#610 = PERSON_AND_ORGANIZATION ( #511, #693 ) ;
#611 = ADVANCED_FACE ( 'NONE', ( #333, #318 ), #97, .F. ) ;
#612 = EDGE_LOOP ( 'NONE', ( #608, #236 ) ) ;
#613 = AXIS2_PLACEMENT_3D ( 'NONE', #250, #639, #485 ) ;
#614 = VERTEX_POINT ( 'NONE', #383 ) ;
#615 = COORDINATED_UNIVERSAL_TIME_OFFSET ( 1, 0, .AHEAD. ) ;
#616 = LOCAL_TIME ( 9, 13, 46.00000000000000000, #564 ) ;
#617 = VERTEX_POINT ( 'NONE', #268 ) ;
#618 = EDGE_CURVE ( 'NONE', #342, #304, #83, .T. ) ;
#619 = VECTOR ( 'NONE', #391, 1000.000000000000000 ) ;
#620 = ORIENTED_EDGE ( 'NONE', *, *, #215, .F. ) ;
#621 = CARTESIAN_POINT ( 'NONE',  ( 25.00000000000000000, 100.0000000000000000, -50.00000000000000000 ) ) ;
#622 = VERTEX_POINT ( 'NONE', #502 ) ;
#623 = CIRCLE ( 'NONE', #510, 25.00000000000000000 ) ;
#624 = DIRECTION ( 'NONE',  ( 0.000000000000000000, 1.000000000000000000, 2.081668171172169746E-16 ) ) ;
#625 = ORIENTED_EDGE ( 'NONE', *, *, #167, .T. ) ;
#626 = APPROVAL_PERSON_ORGANIZATION ( #362, #225, #357 ) ;
#627 = CARTESIAN_POINT ( 'NONE',  ( 20.00000000000000000, -100.0000000000000000, -1.387778780781445991E-14 ) ) ;
#628 = ADVANCED_FACE ( 'NONE', ( #440, #646 ), #374, .T. ) ;
#629 = DIRECTION ( 'NONE',  ( 0.000000000000000000, 1.000000000000000000, 1.387778780781446169E-16 ) ) ;
#630 = CARTESIAN_POINT ( 'NONE',  ( -50.00000000000000000, 0.000000000000000000, 50.00000000000000000 ) ) ;
#631 = APPROVAL_DATE_TIME ( #411, #225 ) ;
#632 = EDGE_LOOP ( 'NONE', ( #280, #363, #75, #201 ) ) ;
#633 = AXIS2_PLACEMENT_3D ( 'NONE', #580, #360, #476 ) ;
#634 = VERTEX_POINT ( 'NONE', #156 ) ;
#635 = DIRECTION ( 'NONE',  ( 0.000000000000000000, -2.775557561562890365E-16, 1.000000000000000000 ) ) ;
#636 = ORIENTED_EDGE ( 'NONE', *, *, #689, .T. ) ;
#637 = EDGE_CURVE ( 'NONE', #634, #622, #443, .T. ) ;
#638 = CARTESIAN_POINT ( 'NONE',  ( -25.00000000000000000, 100.0000000000000000, -50.00000000000000000 ) ) ;
#639 = DIRECTION ( 'NONE',  ( -1.000000000000000000, 0.000000000000000000, 0.000000000000000000 ) ) ;
#640 = FACE_OUTER_BOUND ( 'NONE', #325, .T. ) ;
#641 = CC_DESIGN_PERSON_AND_ORGANIZATION_ASSIGNMENT ( #72, #472, ( #361 ) ) ;
#642 = DIRECTION ( 'NONE',  ( -1.000000000000000000, 0.000000000000000000, 0.000000000000000000 ) ) ;
#643 = CIRCLE ( 'NONE', #589, 24.99999999999999289 ) ;
#644 = FACE_OUTER_BOUND ( 'NONE', #723, .T. ) ;
#645 = DIRECTION ( 'NONE',  ( 0.000000000000000000, 0.000000000000000000, 1.000000000000000000 ) ) ;
#646 = FACE_OUTER_BOUND ( 'NONE', #111, .T. ) ;
#647 = EDGE_LOOP ( 'NONE', ( #666, #389, #523, #518 ) ) ;
#648 = DIRECTION ( 'NONE',  ( -1.000000000000000000, 0.000000000000000000, 0.000000000000000000 ) ) ;
#649 = CARTESIAN_POINT ( 'NONE',  ( 0.000000000000000000, 100.0000000000000000, 20.00000000000000000 ) ) ;
#650 = DIRECTION ( 'NONE',  ( 0.000000000000000000, -9.184547653667829437E-17, 1.000000000000000000 ) ) ;
#651 = ORIENTED_EDGE ( 'NONE', *, *, #215, .T. ) ;
#652 = CARTESIAN_POINT ( 'NONE',  ( 0.000000000000000000, 100.0000000000000000, 50.00000000000000000 ) ) ;
#653 = VECTOR ( 'NONE', #724, 1000.000000000000000 ) ;
#654 = CARTESIAN_POINT ( 'NONE',  ( -50.00000000000000000, 0.000000000000000000, 50.00000000000000000 ) ) ;
#655 = DIRECTION ( 'NONE',  ( 1.000000000000000000, 0.000000000000000000, 0.000000000000000000 ) ) ;
#656 = ORIENTED_EDGE ( 'NONE', *, *, #108, .T. ) ;
#657 = CARTESIAN_POINT ( 'NONE',  ( 20.00000000000000000, 0.000000000000000000, 50.00000000000000000 ) ) ;
#658 = CIRCLE ( 'NONE', #219, 25.00000000000000000 ) ;
#659 = CARTESIAN_POINT ( 'NONE',  ( -20.00000000000000000, -100.0000000000000000, -1.387778780781445991E-14 ) ) ;
#660 = VERTEX_POINT ( 'NONE', #25 ) ;
#661 = EDGE_CURVE ( 'NONE', #449, #417, #300, .T. ) ;
#662 = CARTESIAN_POINT ( 'NONE',  ( -50.00000000000000000, 0.000000000000000000, -50.00000000000000000 ) ) ;
#663 = ORIENTED_EDGE ( 'NONE', *, *, #661, .F. ) ;
#664 = CC_DESIGN_PERSON_AND_ORGANIZATION_ASSIGNMENT ( #532, #249, ( #361 ) ) ;
#665 = DIRECTION ( 'NONE',  ( 0.000000000000000000, 0.000000000000000000, 1.000000000000000000 ) ) ;
#666 = ORIENTED_EDGE ( 'NONE', *, *, #262, .F. ) ;
#667 = AXIS2_PLACEMENT_3D ( 'NONE', #120, #118, #3 ) ;
#668 = ADVANCED_FACE ( 'NONE', ( #56 ), #722, .T. ) ;
#669 = EDGE_LOOP ( 'NONE', ( #437, #242 ) ) ;
#670 = PLANE ( 'NONE',  #294 ) ;
#671 = DIRECTION ( 'NONE',  ( 0.000000000000000000, -9.184547653667829437E-17, 1.000000000000000000 ) ) ;
#672 = ORIENTED_EDGE ( 'NONE', *, *, #332, .T. ) ;
#673 = VECTOR ( 'NONE', #429, 1000.000000000000000 ) ;
#674 = CALENDAR_DATE ( 2024, 20, 8 ) ;
#675 = ORIENTED_EDGE ( 'NONE', *, *, #528, .T. ) ;
#676 = LINE ( 'NONE', #572, #195 ) ;
#677 = CARTESIAN_POINT ( 'NONE',  ( -50.00000000000000000, 0.000000000000000000, 50.00000000000000000 ) ) ;
#678 = VECTOR ( 'NONE', #80, 1000.000000000000000 ) ;
#679 = EDGE_LOOP ( 'NONE', ( #37, #1, #636, #596 ) ) ;
#680 = ADVANCED_FACE ( 'NONE', ( #458 ), #451, .T. ) ;
#681 = DIRECTION ( 'NONE',  ( 0.000000000000000000, 1.000000000000000000, 1.040834085586083887E-16 ) ) ;
#682 = CARTESIAN_POINT ( 'NONE',  ( 0.000000000000000000, 100.0000000000000000, -20.00000000000000000 ) ) ;
#683 = LOCAL_TIME ( 9, 13, 46.00000000000000000, #352 ) ;
#684 = DIRECTION ( 'NONE',  ( 0.000000000000000000, -1.000000000000000000, -2.775557561562890365E-16 ) ) ;
#685 = VERTEX_POINT ( 'NONE', #562 ) ;
#686 = ORIENTED_EDGE ( 'NONE', *, *, #702, .T. ) ;
#687 = DIRECTION ( 'NONE',  ( 1.000000000000000000, 0.000000000000000000, 0.000000000000000000 ) ) ;
#688 = CARTESIAN_POINT ( 'NONE',  ( -50.00000000000000000, 50.00000000000000000, 20.00000000000000000 ) ) ;
#689 = EDGE_CURVE ( 'NONE', #600, #54, #284, .T. ) ;
#690 = CIRCLE ( 'NONE', #139, 50.00000000000000000 ) ;
#691 = CARTESIAN_POINT ( 'NONE',  ( -50.00000000000000000, 150.0000000000000000, 20.00000000000000000 ) ) ;
#692 = ORIENTED_EDGE ( 'NONE', *, *, #293, .F. ) ;
#693 = ORGANIZATION ( 'UNSPECIFIED', 'UNSPECIFIED', '' ) ;
#694 = CARTESIAN_POINT ( 'NONE',  ( -50.00000000000000000, 50.00000000000000000, -20.00000000000000000 ) ) ;
#695 = DIRECTION ( 'NONE',  ( -1.000000000000000000, 0.000000000000000000, 0.000000000000000000 ) ) ;
#696 = FACE_OUTER_BOUND ( 'NONE', #499, .T. ) ;
#697 = DIRECTION ( 'NONE',  ( 0.000000000000000000, 0.000000000000000000, -1.000000000000000000 ) ) ;
#698 = DIRECTION ( 'NONE',  ( 0.000000000000000000, 1.734723475976804876E-16, -1.000000000000000000 ) ) ;
#699 = ORIENTED_EDGE ( 'NONE', *, *, #108, .F. ) ;
#700 = CIRCLE ( 'NONE', #578, 25.00000000000000000 ) ;
#701 = DIRECTION ( 'NONE',  ( -4.163336342344335054E-16, 1.000000000000000000, 0.000000000000000000 ) ) ;
#702 = EDGE_CURVE ( 'NONE', #211, #600, #565, .T. ) ;
#703 = DIRECTION ( 'NONE',  ( -1.000000000000000000, 0.000000000000000000, 0.000000000000000000 ) ) ;
#704 = EDGE_CURVE ( 'NONE', #163, #622, #508, .T. ) ;
#705 = CARTESIAN_POINT ( 'NONE',  ( -50.00000000000000000, 150.0000000000000000, -20.00000000000000000 ) ) ;
#706 = ORIENTED_EDGE ( 'NONE', *, *, #637, .T. ) ;
#707 = CARTESIAN_POINT ( 'NONE',  ( -50.00000000000000000, 0.000000000000000000, 50.00000000000000000 ) ) ;
#708 = AXIS2_PLACEMENT_3D ( 'NONE', #146, #378, #142 ) ;
#709 = CARTESIAN_POINT ( 'NONE',  ( 50.00000000000000000, 100.0000000000000000, 20.00000000000000000 ) ) ;
#710 = CARTESIAN_POINT ( 'NONE',  ( -50.00000000000000000, 50.00000000000000000, 20.00000000000000000 ) ) ;
#711 = ORIENTED_EDGE ( 'NONE', *, *, #220, .T. ) ;
#712 = APPLICATION_CONTEXT ( 'configuration controlled 3d designs of mechanical parts and assemblies' ) ;
#713 = CARTESIAN_POINT ( 'NONE',  ( 20.00000000000000000, 9.184547653667829437E-15, -50.00000000000000000 ) ) ;
#714 = LINE ( 'NONE', #543, #275 ) ;
#715 = DIRECTION ( 'NONE',  ( 0.000000000000000000, -1.000000000000000000, -1.734723475976804876E-16 ) ) ;
#716 = ORIENTED_EDGE ( 'NONE', *, *, #19, .T. ) ;
#717 = EDGE_CURVE ( 'NONE', #473, #246, #517, .T. ) ;
#718 = VECTOR ( 'NONE', #603, 1000.000000000000000 ) ;
#719 = VECTOR ( 'NONE', #140, 1000.000000000000000 ) ;
#720 = LINE ( 'NONE', #436, #2 ) ;
#721 = ORIENTED_EDGE ( 'NONE', *, *, #332, .F. ) ;
#722 = CYLINDRICAL_SURFACE ( 'NONE', #515, 50.00000000000000000 ) ;
#723 = EDGE_LOOP ( 'NONE', ( #672, #186, #525, #334, #301, #625, #31, #264 ) ) ;
#724 = DIRECTION ( 'NONE',  ( 0.000000000000000000, 0.000000000000000000, -1.000000000000000000 ) ) ;
#725 = ORIENTED_EDGE ( 'NONE', *, *, #413, .T. ) ;
#726 = VECTOR ( 'NONE', #29, 1000.000000000000000 ) ;
#727 = DIRECTION ( 'NONE',  ( 0.000000000000000000, -2.775557561562890365E-16, 1.000000000000000000 ) ) ;
#728 = APPROVAL ( #394, 'UNSPECIFIED' ) ;
#729 = EDGE_LOOP ( 'NONE', ( #337, #237, #92, #157 ) ) ;
ENDSEC;
END-ISO-10303-21;
